<?xml version="1.0" standalone="no"?>
<!DOCTYPE svg PUBLIC "-//W3C//DTD SVG 1.1//EN" "http://www.w3.org/Graphics/SVG/1.1/DTD/svg11.dtd" >
<svg xmlns="http://www.w3.org/2000/svg">
<metadata>
This is a custom SVG webfont generated by Font Squirrel.
Copyright   : Copyright 19901998 Bitstream Inc  All rights reserved
</metadata>
<defs>
<font id="ZurichCnBTBoldItalic" horiz-adv-x="1010" >
<font-face units-per-em="2048" ascent="1556" descent="-492" />
<missing-glyph horiz-adv-x="506" />
<glyph unicode=" "  horiz-adv-x="506" />
<glyph unicode="&#x09;" horiz-adv-x="506" />
<glyph unicode="&#xa0;" horiz-adv-x="506" />
<glyph unicode="!" horiz-adv-x="664" d="M33 0l55 266h248l-55 -266h-248zM137 397l193 1078h293l-275 -1078h-211z" />
<glyph unicode="&#x22;" horiz-adv-x="678" d="M80 879v559h192v-559h-192zM406 879v559h192v-559h-192z" />
<glyph unicode="#" horiz-adv-x="1575" d="M45 406l76 200h282l86 242h-299l74 201h297l148 415h221l-146 -415h242l148 415h221l-148 -415h283l-74 -201h-280l-84 -242h290l-71 -200h-291l-148 -416h-221l148 416h-244l-149 -416h-220l146 416h-287zM621 604h251l86 244h-249z" />
<glyph unicode="$" d="M2 344q0 24 4 55.5t12 75.5h258q-5 -34 -7.5 -57t-2.5 -39q0 -54 21.5 -87.5t66.5 -49.5l86 405q-141 100 -206.5 197.5t-65.5 206.5q0 176 111 282.5t296 106.5h25l37 159h108l-38 -165q136 -14 208 -88t72 -199q0 -26 -2 -49t-6 -45h-250q3 18 4.5 34.5t1.5 32.5 q0 51 -19.5 79.5t-57.5 33.5l-76 -352l2 -2q280 -218 280 -385q0 -223 -116 -344t-328 -121h-6l-41 -174h-109l41 184q-145 17 -224 96.5t-79 208.5zM422 1081q0 -37 18.5 -71.5t61.5 -75.5l65 311h-6q-60 0 -99.5 -46.5t-39.5 -117.5zM449 233q74 7 113.5 66.5t39.5 165.5 q0 37 -19.5 70t-58.5 61z" />
<glyph unicode="%" horiz-adv-x="1518" d="M96 948q0 249 89.5 376.5t263.5 127.5q120 0 186.5 -62.5t66.5 -175.5q0 -245 -90 -373t-264 -128q-115 0 -183.5 64t-68.5 171zM166 -25l979 1475h188l-979 -1475h-188zM295 932q0 -44 14 -62t47 -18q37 0 56.5 19t33.5 67q27 88 42.5 170.5t15.5 120.5q0 39 -16.5 59.5 t-49.5 20.5q-30 0 -51.5 -19.5t-34.5 -58.5q-27 -90 -42 -172.5t-15 -126.5zM803 213q0 249 88.5 376.5t261.5 127.5q121 0 187.5 -62.5t66.5 -175.5q0 -246 -90.5 -374t-263.5 -128q-115 0 -182.5 64t-67.5 172zM999 197q0 -44 14.5 -62t47.5 -18q36 0 56 19t34 67 q26 88 41.5 170.5t15.5 120.5q0 40 -15.5 59.5t-47.5 19.5q-31 0 -52.5 -18.5t-33.5 -56.5q-28 -92 -44 -176t-16 -125z" />
<glyph unicode="&#x26;" horiz-adv-x="1208" d="M27 299q0 218 78 352.5t214 151.5q-60 26 -90 80.5t-30 136.5q0 217 107.5 336t305.5 119h203l-49 -228h-88q-103 0 -149 -56.5t-46 -180.5q0 -66 31.5 -92.5t110.5 -26.5h92l53 254h291l-53 -254h188l-49 -215h-186l-144 -676h-442q-185 0 -266.5 71t-81.5 228zM319 348 q0 -67 28.5 -95t94.5 -28h131l97 451h-99q-71 0 -111 -14.5t-65 -47.5q-33 -45 -54.5 -118.5t-21.5 -147.5z" />
<glyph unicode="'" horiz-adv-x="352" d="M80 879v559h192v-559h-192z" />
<glyph unicode="(" horiz-adv-x="616" d="M74 184q0 223 39 414.5t123 380.5q37 83 95.5 191.5t186.5 326.5h180q-214 -404 -312.5 -782t-98.5 -791q0 -52 2 -120.5t6 -145.5h-182q-20 172 -29.5 301t-9.5 225z" />
<glyph unicode=")" horiz-adv-x="616" d="M-166 -342q215 407 314.5 785.5t99.5 789.5q0 35 -2 93l-8 171h184q20 -173 29.5 -300.5t9.5 -223.5q0 -224 -39.5 -416t-122.5 -381q-37 -83 -96 -191.5t-187 -326.5h-182z" />
<glyph unicode="*" d="M203 1014v209l278 -47l-178 219l178 102l101 -264l100 264l178 -102l-178 -219l279 45v-207l-279 45l178 -219l-178 -101l-100 265l-101 -265l-178 103l178 219z" />
<glyph unicode="+" horiz-adv-x="1706" d="M254 512v199h498v510h202v-510h498v-199h-498v-512h-202v512h-498z" />
<glyph unicode="," horiz-adv-x="506" d="M-158 -201l183 465h286l-268 -465h-201z" />
<glyph unicode="-" horiz-adv-x="569" d="M-35 375l60 278h499l-59 -278h-500z" />
<glyph unicode="." horiz-adv-x="506" d="M-29 0l54 256h254l-56 -256h-252z" />
<glyph unicode="/" horiz-adv-x="569" d="M-131 -190l608 1687h162l-610 -1687h-160z" />
<glyph unicode="0" d="M33 336q0 76 15.5 190.5t45.5 259.5q35 165 69.5 282.5t61.5 166.5q65 116 154 166.5t227 50.5q182 0 272.5 -90t90.5 -270q0 -70 -14 -169.5t-48 -260.5q-45 -210 -74.5 -314t-58.5 -158q-62 -114 -150 -165.5t-223 -51.5q-189 0 -278.5 88.5t-89.5 274.5zM303 307 q0 -66 24.5 -95.5t78.5 -29.5q46 0 77 35.5t60 124.5q11 35 34.5 134t55.5 247q29 140 45 243t16 146q0 70 -24.5 100.5t-79.5 30.5q-53 0 -87 -48t-65 -173q-62 -250 -98.5 -444.5t-36.5 -270.5z" />
<glyph unicode="1" d="M211 934l57 266q100 43 179.5 99.5t138.5 127.5h268l-303 -1427h-289l230 1079q-46 -38 -115 -74t-166 -71z" />
<glyph unicode="2" d="M-84 0l55 256l201 184q272 249 391 416t119 297q0 37 -20 60.5t-52 23.5q-54 0 -84.5 -39.5t-54.5 -153.5h-301q40 208 148.5 304t302.5 96q166 0 260 -81.5t94 -225.5q0 -203 -163.5 -429t-508.5 -499h502l-45 -209h-844z" />
<glyph unicode="3" d="M-14 303q0 21 1.5 42t4.5 42h291q-1 -11 -2 -28q-2 -40 -2 -54q0 -60 25.5 -90.5t76.5 -30.5q68 0 108.5 86t40.5 232q0 73 -37 101t-139 28h-30l47 221q2 0 6 -1q38 -3 55 -3q121 0 176.5 72t55.5 229q0 46 -21.5 71t-60.5 25q-51 0 -80 -36.5t-47 -125.5h-293 q26 180 133.5 271.5t292.5 91.5q170 0 266 -80t96 -221q0 -201 -79 -301.5t-238 -100.5q97 -23 143.5 -85.5t46.5 -168.5q0 -257 -111.5 -381t-342.5 -124q-186 0 -284.5 82t-98.5 237z" />
<glyph unicode="4" d="M4 332l53 258l516 837h402l-189 -888h109l-43 -207h-109l-71 -332h-287l72 332h-453zM283 535h233l201 772l-132 -242q-11 -20 -14 -25z" />
<glyph unicode="5" d="M16 260q0 17 2 35.5t5 36.5h298q-2 -22 -4 -39.5t-2 -26.5q0 -43 21 -65.5t61 -22.5q39 0 63.5 22t43.5 74q33 91 52 187t19 157q0 45 -20 72t-53 27q-44 0 -71.5 -28t-43.5 -89h-291l205 827h715l-45 -219h-445l-92 -370q41 47 88 69.5t105 22.5q117 0 182 -71t65 -197 q0 -51 -7.5 -111t-22.5 -131q-22 -105 -46.5 -177t-52.5 -112q-57 -83 -143 -119.5t-225 -36.5q-177 0 -269 73t-92 212z" />
<glyph unicode="6" d="M53 332q0 58 6 123t17 133q30 179 70.5 335t86.5 273q51 128 151 191t253 63q172 0 260 -73t88 -216q0 -17 -3 -55q-1 -4 -1 -6h-293q3 21 4.5 37t1.5 24q0 44 -20 65t-62 21q-96 0 -191 -414l-3 -13q37 44 83 64.5t107 20.5q130 0 201.5 -78.5t71.5 -220.5 q0 -312 -119.5 -471.5t-353.5 -159.5q-173 0 -264 91.5t-91 265.5zM317 299q0 -65 22.5 -94t72.5 -29q76 0 126 115t50 295q0 64 -22 92.5t-70 28.5q-77 0 -128 -115.5t-51 -292.5z" />
<glyph unicode="7" d="M37 0l622 1204h-479l47 223h774l-53 -245l-571 -1182h-340z" />
<glyph unicode="8" d="M14 330q0 193 82.5 309t231.5 133q-73 23 -111.5 76t-38.5 131q0 235 106.5 353t319.5 118q180 0 275.5 -75t95.5 -216q0 -189 -75 -293t-222 -121q89 -24 131.5 -88t42.5 -172q0 -247 -115.5 -378.5t-333.5 -131.5q-194 0 -291.5 88.5t-97.5 266.5zM305 309 q0 -63 25.5 -94t77.5 -31q69 0 113 91t44 233q0 67 -24.5 98t-77.5 31q-71 0 -114.5 -90t-43.5 -238zM457 934q0 -46 22.5 -70t65.5 -24q63 0 102 84t39 221q0 51 -23 77.5t-67 26.5q-64 0 -101.5 -85t-37.5 -230z" />
<glyph unicode="9" d="M12 272q0 20 1.5 41.5t4.5 44.5h295q-3 -29 -4.5 -50.5t-1.5 -35.5q0 -48 19 -72t57 -24q62 0 101 75t102 378q-36 -44 -82.5 -64t-110.5 -20q-131 0 -201.5 79t-70.5 226q0 292 121 446t350 154q181 0 270.5 -91t89.5 -276q0 -73 -18.5 -196.5t-52.5 -278.5 q-42 -191 -78 -298.5t-74 -164.5q-60 -89 -147 -130.5t-217 -41.5q-177 0 -265 75t-88 224zM414 864q0 -63 22 -92t70 -29q78 0 128 106.5t50 276.5q0 62 -23.5 92.5t-70.5 30.5q-78 0 -127 -106.5t-49 -278.5z" />
<glyph unicode=":" horiz-adv-x="532" d="M-14 0l53 256h254l-55 -256h-252zM150 774l55 254h252l-54 -254h-253z" />
<glyph unicode=";" horiz-adv-x="532" d="M-141 -201l180 465h287l-269 -465h-198zM150 774l53 254h252l-54 -254h-251z" />
<glyph unicode="&#x3c;" horiz-adv-x="1706" d="M264 512v199l1178 483v-219l-893 -365l893 -364v-219z" />
<glyph unicode="=" horiz-adv-x="1706" d="M254 297v199h1198v-199h-1198zM254 727v199h1198v-199h-1198z" />
<glyph unicode="&#x3e;" horiz-adv-x="1706" d="M264 27v219l895 364l-895 365v219l1178 -483v-199z" />
<glyph unicode="?" horiz-adv-x="854" d="M106 1087q36 225 138.5 317.5t314.5 92.5q149 0 234.5 -74t85.5 -202q0 -157 -55 -265t-210 -233l-7 -6q-104 -84 -122 -127q-10 -26 -22 -71t-29 -120h-219l33 168q32 167 139 261l23 20q114 107 152 182t38 174q0 46 -22.5 70t-65.5 24q-58 0 -93.5 -49.5t-56.5 -161.5 h-256zM123 0l57 266h248l-57 -266h-248z" />
<glyph unicode="@" horiz-adv-x="2048" d="M90 520q0 167 52.5 318.5t154.5 275.5q148 181 356 274t463 93q169 0 317.5 -45.5t258.5 -128.5q135 -105 201.5 -239.5t66.5 -303.5q0 -165 -65.5 -304.5t-188.5 -238.5q-70 -56 -152.5 -85.5t-171.5 -29.5q-106 0 -159.5 42t-55.5 124q-55 -84 -127 -123.5t-170 -39.5 q-158 0 -240.5 86t-82.5 254q0 239 139.5 401t343.5 162q80 0 139 -33t97 -98l53 98h178l-147 -598q-3 -11 -5 -22.5t-2 -18.5q0 -35 24 -52.5t71 -17.5q39 0 81.5 20t79.5 56q86 80 130.5 187t44.5 235q0 240 -185.5 394.5t-478.5 154.5q-141 0 -262.5 -34t-220.5 -101 q-170 -114 -261.5 -285t-91.5 -375q0 -307 207 -490.5t553 -183.5q162 0 316.5 49t287.5 142l82 -117q-153 -115 -324.5 -173t-357.5 -58q-192 0 -353 48.5t-286 143.5q-155 121 -232 279t-77 358zM760 444q0 -92 40.5 -140t117.5 -48q83 0 151.5 63t93.5 164l54 217 q-13 81 -57.5 123.5t-117.5 42.5q-114 0 -198 -124t-84 -298z" />
<glyph unicode="A" horiz-adv-x="1210" d="M-145 0l718 1475h404l84 -1475h-309l-15 332h-405l-152 -332h-325zM432 553h297l-6 149q-3 72 -4.5 144.5t-1.5 144.5q0 51 3 115.5t9 144.5q-23 -72 -52.5 -148.5t-68.5 -162.5z" />
<glyph unicode="B" horiz-adv-x="1190" d="M-27 0l314 1475h411q246 0 353.5 -75t107.5 -243q0 -173 -86 -277.5t-248 -125.5q111 -23 165 -94.5t54 -192.5t-44.5 -221.5t-122.5 -155.5q-70 -49 -172.5 -69.5t-333.5 -20.5h-398zM328 229h133q144 0 210 61.5t66 194.5q0 89 -49.5 126.5t-169.5 37.5h-100zM465 877 h106q153 0 220 55t67 178q0 77 -50 111t-167 34h-94z" />
<glyph unicode="C" horiz-adv-x="1155" d="M57 379q0 55 14.5 148t61.5 319q37 173 65.5 269t57.5 147q72 123 180.5 180t272.5 57q207 0 310 -89.5t103 -270.5q0 -27 -2.5 -58.5t-7.5 -68.5h-303q7 67 8.5 88.5t1.5 32.5q0 75 -31.5 111t-97.5 36q-64 0 -103.5 -35.5t-68.5 -122.5q-13 -39 -35.5 -134t-58.5 -261 q-27 -131 -41 -221.5t-14 -136.5q0 -79 34 -120.5t99 -41.5q84 0 129 60.5t71 215.5h308q-36 -260 -160 -384t-350 -124q-220 0 -331.5 101.5t-111.5 302.5z" />
<glyph unicode="D" horiz-adv-x="1223" d="M-25 0l314 1475h399q253 0 357 -97.5t104 -328.5q0 -61 -6 -124.5t-19 -131.5q-39 -205 -76 -337.5t-73 -197.5q-46 -84 -100.5 -136t-124.5 -79q-59 -23 -129.5 -33t-219.5 -10h-426zM336 228q13 -2 27.5 -2.5t42.5 -0.5q122 0 184.5 35t107.5 129q26 53 53 144t50 202 q17 80 26 152.5t9 132.5q0 131 -50 184t-172 53q-23 0 -36 -0.5t-23 -1.5z" />
<glyph unicode="E" horiz-adv-x="1026" d="M-27 0l314 1475h819l-49 -234h-508l-76 -352h469l-49 -230h-469l-90 -428h512l-49 -231h-824z" />
<glyph unicode="F" horiz-adv-x="952" d="M-27 0l314 1475h762l-52 -240h-450l-74 -356h418l-49 -234h-420l-137 -645h-312z" />
<glyph unicode="G" horiz-adv-x="1214" d="M59 393q0 72 17 184.5t51 264.5q32 142 65.5 243t69.5 162q79 131 192.5 191.5t280.5 60.5q211 0 321.5 -100.5t110.5 -292.5q0 -22 -1.5 -43.5t-4.5 -44.5h-307q3 23 4.5 43t1.5 39q0 84 -34.5 127t-102.5 43q-66 0 -113 -41t-86 -133q-23 -54 -47.5 -138t-46.5 -186 q-26 -122 -39.5 -218.5t-13.5 -156.5q0 -108 39.5 -153t134.5 -45q23 0 54.5 3.5t78.5 12.5l66 309h-172l47 230h481l-113 -527q-9 -42 -16.5 -89t-13.5 -97q-94 -33 -199 -49.5t-219 -16.5q-249 0 -367.5 102.5t-118.5 315.5z" />
<glyph unicode="H" horiz-adv-x="1235" d="M-27 0l314 1475h311l-125 -582h352l125 582h312l-316 -1475h-309l137 651h-352l-137 -651h-312z" />
<glyph unicode="I" horiz-adv-x="592" d="M-18 0l313 1475h311l-313 -1475h-311z" />
<glyph unicode="J" horiz-adv-x="1020" d="M-70 319q0 37 5.5 80t15.5 90h293q-12 -54 -17.5 -91.5t-5.5 -61.5q0 -61 29 -93t84 -32q62 0 94.5 43.5t65.5 194.5l219 1026h309l-213 -1002l-3 -14q-59 -277 -138 -361q-55 -56 -141.5 -85t-198.5 -29q-189 0 -293.5 88t-104.5 247z" />
<glyph unicode="K" horiz-adv-x="1118" d="M-27 0l314 1475h311l-137 -648l467 648h338l-527 -707l234 -768h-326l-205 748l-157 -748h-312z" />
<glyph unicode="L" horiz-adv-x="891" d="M-23 0l314 1475h313l-264 -1237h459l-49 -238h-773z" />
<glyph unicode="M" horiz-adv-x="1731" d="M-27 0l314 1475h499v-930q0 -45 -5 -112.5t-15 -151.5q39 141 90.5 281t116.5 282l293 631h489l-313 -1475h-303l194 864q21 98 48.5 207.5t62.5 231.5l-171 -396l-50 -114l-351 -793h-342l-8 1307l-32 -176l-50 -261l-176 -870h-291z" />
<glyph unicode="N" horiz-adv-x="1360" d="M-27 0l314 1475h430l96 -705l6 -44q42 -328 55 -499q10 136 34 294.5t67 361.5l121 592h290l-313 -1475h-430l-96 704l-3 24q-45 330 -52 513q-21 -164 -47.5 -326t-59.5 -323l-121 -592h-291z" />
<glyph unicode="O" horiz-adv-x="1239" d="M57 389q0 70 18.5 192.5t53.5 278.5q30 134 65 240t64 157q77 128 187.5 185t279.5 57q226 0 340.5 -105t114.5 -313q0 -69 -16.5 -177t-49.5 -257q-37 -165 -69.5 -270t-63.5 -158q-75 -127 -185.5 -184.5t-281.5 -57.5q-224 0 -340.5 105.5t-116.5 306.5zM369 367 q0 -84 39 -126t118 -42q71 0 116 37t77 122q14 35 36 124.5t60 262.5q26 120 39.5 214.5t13.5 146.5q0 86 -37 128t-114 42q-72 0 -118.5 -36t-80.5 -120q-11 -27 -38 -137.5t-60 -267.5q-24 -116 -37.5 -208.5t-13.5 -139.5z" />
<glyph unicode="P" horiz-adv-x="1147" d="M-25 0l314 1475h356q284 0 399 -78.5t115 -263.5q0 -115 -28.5 -212.5t-81.5 -166.5q-63 -82 -167 -117t-302 -35h-166l-127 -602h-312zM463 829h115q140 0 204 63.5t64 201.5q0 81 -48 117t-155 36h-92z" />
<glyph unicode="Q" horiz-adv-x="1239" d="M53 401q0 65 17 171t55 282q34 163 62.5 258t58.5 145q73 125 187 183.5t282 58.5q225 0 339.5 -104t114.5 -308q0 -97 -25.5 -246.5t-72.5 -310.5q-39 -135 -78.5 -204t-97.5 -119q37 5 74 7.5t73 2.5h74l-47 -217h-231q-55 0 -161 -4t-157 -4q-233 0 -350 102.5 t-117 306.5zM362 383q0 -83 40 -124.5t118 -41.5q74 0 119.5 36t77.5 122q11 29 31 112t67 304q22 107 34.5 194t12.5 133q0 78 -40 118t-117 40q-75 0 -120 -35t-77 -121q-12 -33 -38 -139t-54 -240q-26 -117 -40 -211.5t-14 -146.5z" />
<glyph unicode="R" horiz-adv-x="1141" d="M-27 0l314 1475h366q252 0 360.5 -70t108.5 -227q0 -210 -91.5 -322.5t-282.5 -138.5q115 -13 171 -64.5t56 -146.5q0 -19 -2.5 -48.5t-7.5 -65.5l-27 -179q-5 -33 -7.5 -65.5t-2.5 -65.5q0 -17 1.5 -37.5t3.5 -44.5h-327q6 136 34 293.5t28 183.5q0 72 -40 98.5 t-161 26.5h-57l-127 -602h-310zM459 834h57q155 0 219 62t64 206q0 76 -38 110.5t-122 34.5h-92z" />
<glyph unicode="S" horiz-adv-x="1112" d="M-4 322q0 30 4.5 62.5t13.5 69.5l310 1q-5 -26 -7 -53.5t-2 -57.5q0 -69 37.5 -106t106.5 -37q82 0 130 52t48 140q0 105 -195 268l-41 33l-12 11q-219 183 -219 356q0 210 122 324t347 114q212 0 326 -89t114 -255q0 -19 -1.5 -37.5t-4.5 -37.5l-307 -1q0 2 1 7 q3 34 3 49q0 70 -32 106.5t-95 36.5q-75 0 -117.5 -45.5t-42.5 -126.5q0 -44 25.5 -84t105.5 -111l132 -113q84 -72 114 -100q47 -45 72.5 -110.5t25.5 -141.5q0 -230 -134.5 -351.5t-391.5 -121.5q-205 0 -320.5 93t-115.5 256z" />
<glyph unicode="T" horiz-adv-x="1020" d="M127 1229l51 246h977l-53 -246h-328l-260 -1229h-317l260 1229h-330z" />
<glyph unicode="U" horiz-adv-x="1235" d="M51 358q0 29 3 58.5t9 60.5l209 998h314l-211 -999q-7 -31 -11 -58.5t-4 -46.5q0 -85 41 -128.5t119 -43.5q94 0 150 69t90 230l207 977h313l-207 -979q-30 -145 -71 -239t-97 -148q-68 -66 -171 -100t-232 -34q-216 0 -333.5 100t-117.5 283z" />
<glyph unicode="V" horiz-adv-x="1114" d="M152 1475h319l-6 -758q-3 -190 -6 -283t-8 -171q24 92 50 171t52 141l377 900h323l-684 -1475h-364z" />
<glyph unicode="W" horiz-adv-x="1792" d="M141 0l19 1475h305l-27 -750q-2 -54 -9.5 -163.5t-18.5 -242.5q23 84 58.5 184.5t88.5 233.5l297 738h369l-6 -891q0 -17 -6 -158q-3 -75 -5 -120q22 95 56.5 204t91.5 260l260 705h311l-608 -1475h-363l4 786q0 112 4 208t11 187q-18 -78 -47 -165t-68 -180l-344 -836 h-373z" />
<glyph unicode="X" horiz-adv-x="1055" d="M-178 0l502 762l-172 713h319l96 -482l310 482h342l-496 -715l195 -760h-330l-105 518l-309 -518h-352z" />
<glyph unicode="Y" horiz-adv-x="1026" d="M121 1475h321l88 -574l338 574h344l-587 -932l-117 -543h-318l115 537z" />
<glyph unicode="Z" horiz-adv-x="1014" d="M-121 0l58 270l792 971h-557l49 234h897l-59 -281l-787 -958h602l-49 -236h-946z" />
<glyph unicode="[" horiz-adv-x="616" d="M-100 -356l405 1831h438l-36 -172h-211l-330 -1487h211l-39 -172h-438z" />
<glyph unicode="\" horiz-adv-x="569" d="M127 1497h149l175 -1685h-148z" />
<glyph unicode="]" horiz-adv-x="616" d="M-219 -356l37 172h211l329 1489h-211l39 170h439l-406 -1831h-438z" />
<glyph unicode="^" horiz-adv-x="2048" d="M416 899l481 561h252l481 -561h-235l-371 371l-373 -371h-235z" />
<glyph unicode="_" horiz-adv-x="1024" d="M0 -279h1024v-204h-1024v204z" />
<glyph unicode="`" horiz-adv-x="1024" d="M336 1526h252l168 -369h-129z" />
<glyph unicode="a" horiz-adv-x="995" d="M-18 246q0 223 118.5 320.5t393.5 97.5q40 0 61 -0.5t41 -1.5q9 49 12.5 77.5t3.5 44.5q0 53 -25 79t-75 26q-52 0 -83.5 -33t-41.5 -98h-281q19 153 114.5 224t285.5 71q198 0 289.5 -66t91.5 -209q0 -36 -6 -81t-17 -93l-84 -395q-11 -53 -18 -104.5t-11 -104.5h-272 l13 106q-52 -59 -112.5 -87.5t-133.5 -28.5q-117 0 -190.5 72t-73.5 184zM266 291q0 -57 24 -89t66 -32q78 0 129.5 83.5t77.5 250.5h-26q-141 0 -206 -51.5t-65 -161.5z" />
<glyph unicode="b" horiz-adv-x="1042" d="M-53 0l18 74l21 90l278 1311h291l-115 -545q50 65 106 92t148 27q122 0 182 -65.5t60 -199.5q0 -54 -11 -133t-32 -178q-23 -107 -49 -186.5t-53 -126.5q-52 -89 -118 -130.5t-157 -41.5q-94 0 -154.5 37.5t-93.5 115.5l-35 -141h-286zM322 281q0 -47 28.5 -76t73.5 -29 q48 0 78 30t55 105q37 120 58.5 241t21.5 196q0 55 -24 83.5t-70 28.5q-41 0 -72.5 -28t-56.5 -87q-13 -28 -28.5 -86.5t-31.5 -132.5q-17 -99 -24.5 -159t-7.5 -86z" />
<glyph unicode="c" horiz-adv-x="979" d="M18 322q0 48 8.5 112.5t24.5 138.5q22 100 48 173.5t55 119.5q61 98 149 142.5t221 44.5q184 0 273.5 -82t89.5 -250q0 -18 -4 -62v-6h-276q4 23 6.5 45.5t2.5 44.5q0 59 -25.5 89t-74.5 30q-46 0 -76 -26.5t-51 -85.5q-6 -19 -16.5 -61t-22.5 -95l-12 -58 q-41 -195 -41 -243q0 -62 25 -93.5t75 -31.5q60 0 95.5 46.5t60.5 158.5h285q-33 -204 -139.5 -300t-301.5 -96q-186 0 -282.5 87.5t-96.5 257.5z" />
<glyph unicode="d" horiz-adv-x="1042" d="M16 244q0 53 11.5 134.5t31.5 180.5q23 105 48.5 182.5t54.5 126.5q51 90 119.5 132t162.5 42q78 0 133.5 -31t102.5 -102l121 566h289l-279 -1311q-6 -32 -12.5 -73t-12.5 -91h-294l16 98q-42 -62 -98 -90t-136 -28q-130 0 -194 65t-64 199zM315 283q0 -56 24 -84.5 t71 -28.5q40 0 70.5 27t56.5 86q13 33 28 90.5t31 134.5q15 78 23 134.5t8 90.5q0 58 -25.5 88.5t-73.5 30.5q-47 0 -76 -28t-53 -101q-39 -123 -61.5 -244.5t-22.5 -195.5z" />
<glyph unicode="e" horiz-adv-x="1018" d="M16 322q0 46 9 109.5t26 141.5q23 100 49 174t54 119q60 99 148.5 143t225.5 44q182 0 282.5 -83.5t100.5 -232.5q0 -52 -8.5 -118t-25.5 -150h-553l-1 -5q-28 -145 -28 -188q0 -61 25.5 -91.5t76.5 -30.5q59 0 95 44t57 144h297q-48 -192 -156 -278.5t-299 -86.5 q-182 0 -278.5 89t-96.5 256zM362 635h256q7 35 10 61t3 47q0 65 -27.5 99.5t-79.5 34.5q-65 0 -104 -57.5t-58 -184.5z" />
<glyph unicode="f" horiz-adv-x="592" d="M-20 0l180 848h-164l39 180h164l30 152q33 165 115 241t227 76q46 0 91.5 -3.5t90.5 -10.5l-40 -198q-24 4 -41 6.5t-29 2.5q-52 0 -81 -27t-42 -87l-31 -152h170l-38 -180h-170l-181 -848h-290z" />
<glyph unicode="g" horiz-adv-x="1038" d="M-66 -137q0 25 1 38t4 25h282q-2 -19 -3 -29.5t-1 -17.5q0 -52 24 -76t76 -24q60 0 98.5 51.5t63.5 167.5l29 133q-45 -55 -98 -79.5t-127 -24.5q-124 0 -191 74t-67 210q0 30 3 65t9 75q21 138 48 241t58 164q50 97 124.5 146t170.5 49q98 0 153.5 -39t86.5 -127l37 143 h276l-24 -98q-18 -72 -21 -87l-180 -851q-49 -227 -153 -311t-324 -84q-176 0 -265.5 67t-89.5 199zM315 328q0 -59 20.5 -90t57.5 -31q45 0 82.5 29.5t63.5 85.5q12 28 27.5 85.5t33.5 143.5q10 45 15.5 88t5.5 84q0 72 -29 108.5t-86 36.5q-41 0 -68.5 -37.5t-50.5 -125.5 q-35 -131 -53.5 -228t-18.5 -149z" />
<glyph unicode="h" horiz-adv-x="1020" d="M-41 0l313 1475h291l-114 -545q48 64 105 92.5t136 28.5q115 0 173.5 -54t58.5 -159q0 -45 -3 -77t-10 -61l-149 -700h-291l149 702q4 22 6.5 40.5t2.5 31.5q0 40 -19 60t-57 20q-56 0 -99.5 -56.5t-64.5 -156.5l-137 -641h-291z" />
<glyph unicode="i" horiz-adv-x="522" d="M-39 0l219 1028h291l-219 -1028h-291zM227 1247l47 228h291l-47 -228h-291z" />
<glyph unicode="j" horiz-adv-x="530" d="M-237 -375l40 196l36 -3q15 -2 24 -2q40 0 60 20t32 78l238 1114h290l-241 -1141q-35 -159 -103.5 -219.5t-212.5 -60.5q-35 0 -76.5 4.5t-86.5 13.5zM238 1247l49 228h288l-45 -228h-292z" />
<glyph unicode="k" horiz-adv-x="985" d="M-43 0l313 1475h291l-176 -826l322 379h313l-379 -455l205 -573h-299l-176 582l-123 -582h-291z" />
<glyph unicode="l" horiz-adv-x="522" d="M-39 0l313 1475h291l-313 -1475h-291z" />
<glyph unicode="m" horiz-adv-x="1466" d="M-45 0l178 840q8 38 16 83.5t17 104.5h274l-18 -117q47 71 111 105.5t147 34.5q86 0 138 -40.5t65 -117.5q58 81 126.5 119.5t155.5 38.5q100 0 153.5 -55t53.5 -158q0 -29 -4 -64t-12 -74l-148 -700h-284l149 702q4 20 6 38.5t2 33.5q0 40 -17 60t-52 20 q-52 0 -90.5 -54.5t-61.5 -158.5l-137 -641h-283l150 702q4 20 6 38.5t2 33.5q0 40 -17.5 60t-52.5 20q-51 0 -89.5 -54.5t-61.5 -158.5l-135 -641h-287z" />
<glyph unicode="n" horiz-adv-x="1014" d="M-45 0l178 840q14 65 22 108.5t13 79.5h276l-18 -117q48 73 110.5 106.5t151.5 33.5q113 0 171.5 -54t58.5 -159q-1 -39 -4.5 -72.5t-10.5 -65.5l-147 -700h-293l149 702q6 31 8.5 47.5t2.5 24.5q0 40 -19 60t-57 20q-56 0 -99.5 -56.5t-64.5 -156.5l-137 -641h-291z" />
<glyph unicode="o" horiz-adv-x="1018" d="M16 317q0 48 9 113t26 145q21 96 48 172t55 119q62 99 150.5 143t225.5 44q186 0 282.5 -88t96.5 -256q0 -51 -8 -113.5t-24 -136.5q-22 -96 -48.5 -171t-56.5 -124q-61 -98 -150 -142.5t-225 -44.5q-186 0 -283.5 87t-97.5 253zM295 276q0 -61 26 -92.5t76 -31.5 q47 0 79 27.5t54 88.5q12 33 28.5 99.5t33.5 150.5q16 77 24.5 137.5t8.5 98.5q0 60 -25 90t-76 30q-47 0 -77.5 -26.5t-51.5 -86.5q-7 -18 -17 -57.5t-20 -89.5q-6 -30 -18 -85q-45 -207 -45 -253z" />
<glyph unicode="p" horiz-adv-x="1042" d="M-125 -389l266 1253q3 15 9 54l16 110h291l-17 -98q48 65 104.5 92t149.5 27q122 0 182 -65.5t60 -199.5q0 -54 -11 -133t-32 -178q-23 -107 -49 -186.5t-53 -126.5q-52 -90 -118.5 -131t-160.5 -41q-83 0 -137 30t-101 103l-108 -510h-291zM326 279q0 -47 27 -75t71 -28 q48 0 78 30t53 105q38 119 60 240t22 197q0 55 -24 83.5t-70 28.5q-41 0 -72.5 -28t-56.5 -87q-13 -29 -28.5 -87.5t-29.5 -131.5q-14 -78 -22 -144t-8 -103z" />
<glyph unicode="q" horiz-adv-x="1042" d="M16 244q0 53 11.5 134.5t31.5 180.5q23 105 48.5 182.5t54.5 126.5q51 90 119.5 132t162.5 42q30 0 55.5 -4.5t49.5 -13.5q35 -15 68.5 -43.5t64.5 -71.5l25 119h290l-301 -1417h-290l104 487q-44 -62 -100 -90t-136 -28q-131 0 -194.5 64.5t-63.5 199.5zM315 283 q0 -56 24 -84.5t71 -28.5q40 0 70.5 27t56.5 86q13 33 28 90.5t31 134.5q15 78 23 134.5t8 90.5q0 58 -25.5 88.5t-73.5 30.5q-47 0 -76 -28t-53 -101q-39 -123 -61.5 -244.5t-22.5 -195.5z" />
<glyph unicode="r" horiz-adv-x="696" d="M-45 0l170 801q12 58 21.5 115t15.5 112h280l-24 -149q51 80 116.5 117.5t153.5 37.5q18 0 27 -0.5t16 -1.5l-53 -256q-2 1 -6 1q-51 7 -72 7q-102 0 -158 -59t-86 -203l-110 -522h-291z" />
<glyph unicode="s" horiz-adv-x="905" d="M-37 246q0 16 1.5 36t4.5 45h283q-3 -18 -4.5 -33.5t-1.5 -29.5q0 -58 25.5 -85t80.5 -27q49 0 80 33.5t31 88.5q0 74 -138 171l-73 53q-107 80 -140.5 133.5t-33.5 122.5q0 141 103 220t288 79q175 0 266.5 -62.5t91.5 -181.5q0 -21 -2 -40.5t-6 -37.5h-270 q3 14 4.5 27.5t1.5 23.5q0 51 -24.5 76t-73.5 25q-44 0 -70.5 -27t-26.5 -72q0 -75 175 -188l29 -19l6 -4q184 -121 184 -270q0 -161 -107 -244.5t-313 -83.5q-184 0 -277.5 68.5t-93.5 202.5z" />
<glyph unicode="t" horiz-adv-x="590" d="M-4 848l39 180h147l41 186l314 113l-64 -299h168l-39 -180h-168l-104 -500q-6 -27 -9.5 -45.5t-3.5 -28.5q0 -44 28 -61.5t101 -17.5h19l-43 -195h-162q-118 0 -180 54t-62 157q0 21 4 49.5t15 79.5l108 508h-149z" />
<glyph unicode="u" horiz-adv-x="1014" d="M4 190q0 38 3.5 71.5t10.5 65.5l150 701h291l-150 -702q-4 -21 -6 -40t-2 -32q0 -40 18.5 -59t57.5 -19q56 0 99.5 55.5t64.5 155.5l135 641h291l-179 -838q-9 -44 -17 -91t-16 -99h-278l19 119q-50 -74 -112.5 -108t-150.5 -34q-113 0 -171 54.5t-58 158.5z" />
<glyph unicode="v" horiz-adv-x="944" d="M43 1028h295l14 -470q1 -39 1.5 -75t0.5 -80q0 -49 -3 -168q-1 -18 -1 -26q24 74 50 144t55 136l239 539h312l-533 -1028h-342z" />
<glyph unicode="w" horiz-adv-x="1554" d="M63 1028h281l-4 -510q0 -53 -4.5 -127t-13.5 -167q14 51 34 104.5t47 113.5l267 586h317l-2 -672v-141q29 99 56 180t49 131l219 502h303l-504 -1028h-326l-6 729q0 45 0.5 61t1.5 25q-23 -78 -43 -135t-37 -92l-282 -588h-314z" />
<glyph unicode="x" horiz-adv-x="928" d="M-178 0l414 547l-173 481h297l60 -209l12 -42q12 -42 19 -79q16 35 53 87q4 7 6 10l162 233h297l-353 -485l187 -543h-305l-74 260q-6 21 -11.5 48t-11.5 71q-10 -26 -24 -53t-31 -52l-178 -274h-346z" />
<glyph unicode="y" horiz-adv-x="944" d="M-29 -389l199 362l-127 1055h295l27 -471q5 -70 7.5 -135.5t2.5 -130.5v-45q20 79 40 140t40 103l239 539h299l-694 -1417h-328z" />
<glyph unicode="z" horiz-adv-x="825" d="M-100 0l45 213l534 633h-387l39 182h717l-45 -211l-531 -627h404l-39 -190h-737z" />
<glyph unicode="{" horiz-adv-x="1024" d="M158 426v209q7 0 21 -1t20 -1q120 0 171.5 58t51.5 196v250q0 143 23.5 201t80.5 92q47 25 114 37t167 12q12 0 37 -1t39 -1v-209q-9 0 -25 1t-22 1q-101 0 -136.5 -38.5t-35.5 -162.5v-240q0 -148 -45 -210t-162 -89q117 -27 162 -88t45 -209v-241q0 -123 35 -161 t137 -38q6 0 22 1t25 1v-209q-14 0 -39 -1t-37 -1q-100 0 -167 12t-114 37q-57 34 -80.5 91.5t-23.5 199.5v252q0 137 -51 194.5t-172 57.5q-6 0 -20 -1t-21 -1z" />
<glyph unicode="|" horiz-adv-x="1024" d="M410 -483v2048h206v-2048h-206z" />
<glyph unicode="}" horiz-adv-x="1024" d="M143 -205q9 0 25 -1t22 -1q101 0 136.5 38.5t35.5 160.5v239q0 150 45 211.5t162 87.5q-117 27 -162 89t-45 210v242q0 122 -35.5 160.5t-136.5 38.5q-6 0 -22 -1t-25 -1v209h68q110 0 177 -12t112 -38q57 -32 80.5 -91.5t23.5 -198.5v-252q0 -137 51 -194.5t172 -57.5 q6 0 20 1t21 1v-209h-37q-125 0 -176 -56t-51 -194v-252q0 -143 -23.5 -201t-80.5 -90q-47 -25 -114 -37t-167 -12q-12 0 -37 1t-39 1v209z" />
<glyph unicode="~" horiz-adv-x="1706" d="M178 418v221q107 72 204 107.5t183 35.5q117 0 291 -58l4 -1l55 -19q155 -55 240 -55t175 37t200 117v-221q-104 -71 -196.5 -104.5t-182.5 -33.5q-46 0 -92 8t-92 23q-24 8 -71 25q-219 75 -333 75q-85 0 -177.5 -37.5t-207.5 -119.5z" />
<glyph d="M-53 518l65 148h109l33 143h-179l64 145h154q61 288 181 416.5t326 128.5q161 0 251.5 -78t90.5 -215q0 -27 -3 -58t-9 -69l-260 1q1 10 4 31q4 39 4 54q0 61 -28 93t-80 32q-71 0 -116.5 -73t-86.5 -263h334l-66 -145h-307l-33 -143h277l-66 -148h-241q-13 -56 -19 -107 t-6 -100q0 -59 28.5 -93t80.5 -34q66 0 110 56.5t59 160.5h265q-42 -208 -158 -317t-297 -109q-180 0 -269 88.5t-89 266.5q0 33 4.5 76t15.5 112h-143z" />
<glyph unicode="&#x20ac;" d="M-53 518l65 148h109l33 143h-179l64 145h154q61 288 181 416.5t326 128.5q161 0 251.5 -78t90.5 -215q0 -27 -3 -58t-9 -69l-260 1q1 10 4 31q4 39 4 54q0 61 -28 93t-80 32q-71 0 -116.5 -73t-86.5 -263h334l-66 -145h-307l-33 -143h277l-66 -148h-241q-13 -56 -19 -107 t-6 -100q0 -59 28.5 -93t80.5 -34q66 0 110 56.5t59 160.5h265q-42 -208 -158 -317t-297 -109q-180 0 -269 88.5t-89 266.5q0 33 4.5 76t15.5 112h-143z" />
<glyph unicode="&#xa0;" />
<glyph unicode="&#xa1;" horiz-adv-x="664" d="M41 0l274 1075h211l-192 -1075h-293zM328 1208l55 267h248l-56 -267h-247z" />
<glyph unicode="&#xa2;" d="M25 319q0 144 39 300t96 247q60 96 148.5 141.5t215.5 45.5q24 0 56.5 -2.5t77.5 -7.5l69 145h107l-86 -180q74 -34 110.5 -103.5t36.5 -179.5q0 -20 -4 -64v-6h-252q3 19 4.5 36.5t1.5 35.5q0 21 -1.5 40.5t-4.5 39.5l-305 -621q17 -9 33 -13.5t30 -4.5q79 0 125 49 t70 160h252q-31 -199 -137.5 -296t-294.5 -97q-35 0 -75 4.5t-85 13.5l-74 -149h-106l94 186q-71 46 -106 116t-35 164zM287 322q0 -23 1 -32t3 -16l286 586q-7 5 -18 7.5t-29 2.5q-62 0 -99.5 -38.5t-70.5 -139.5q-35 -113 -54 -209.5t-19 -160.5z" />
<glyph unicode="&#xa3;" d="M-68 0l48 219h129l90 426h-129l45 215h131l43 205q43 202 142.5 295.5t270.5 93.5q161 0 243.5 -67t82.5 -197q0 -24 -2 -52t-6 -59h-274q3 19 4.5 38t1.5 38q0 39 -17 58.5t-51 19.5q-44 0 -69 -41t-54 -182l-31 -150h275l-45 -215h-277l-88 -426h443l-47 -219h-859z " />
<glyph unicode="&#xa4;" d="M-53 518l65 148h109l33 143h-179l64 145h154q61 288 181 416.5t326 128.5q161 0 251.5 -78t90.5 -215q0 -27 -3 -58t-9 -69l-260 1q1 10 4 31q4 39 4 54q0 61 -28 93t-80 32q-71 0 -116.5 -73t-86.5 -263h334l-66 -145h-307l-33 -143h277l-66 -148h-241q-13 -56 -19 -107 t-6 -100q0 -59 28.5 -93t80.5 -34q66 0 110 56.5t59 160.5h265q-42 -208 -158 -317t-297 -109q-180 0 -269 88.5t-89 266.5q0 33 4.5 76t15.5 112h-143z" />
<glyph unicode="&#xa5;" horiz-adv-x="1147" d="M-29 522l29 142h330l-39 180h-256l37 143h190l-88 438h287l104 -616l367 616h303l-285 -438h221l-20 -143h-293l-119 -180h344l-20 -142h-414l-117 -522h-288l114 522h-387z" />
<glyph unicode="&#xa6;" horiz-adv-x="1024" d="M410 -350v758h206v-758h-206zM410 674v758h206v-758h-206z" />
<glyph unicode="&#xa7;" d="M-43 51l51 228q82 -41 158.5 -62.5t138.5 -21.5q81 0 118.5 21.5t37.5 68.5q0 58 -134 161l-40 31q-113 88 -149 144t-36 122q0 90 60.5 154.5t183.5 108.5q-56 44 -83 94.5t-27 111.5q0 137 104.5 211t298.5 74q90 0 181 -13.5t184 -41.5l-50 -217q-74 34 -145 51.5 t-133 17.5q-69 0 -109.5 -26t-40.5 -70q0 -52 128 -143l46 -33q132 -97 167.5 -147t35.5 -109q0 -84 -63.5 -149.5t-186.5 -106.5q58 -41 86.5 -97t28.5 -128q0 -141 -112 -225.5t-300 -84.5q-111 0 -210 19t-189 57zM360 762q0 -37 31.5 -72t100.5 -74q67 32 99 63.5 t32 68.5q0 34 -22 64t-95 83q-75 -30 -110.5 -62.5t-35.5 -70.5z" />
<glyph unicode="&#xa8;" horiz-adv-x="1024" d="M324 1217l53 243h225l-53 -243h-225zM674 1217l51 243h225l-51 -243h-225z" />
<glyph unicode="&#xa9;" horiz-adv-x="1706" d="M111 733q0 149 56 284.5t163 244.5q105 106 238 161.5t284 55.5q152 0 287.5 -56t242.5 -163q105 -105 160 -240.5t55 -286.5q0 -152 -54.5 -284t-160.5 -236q-111 -108 -248 -165.5t-282 -57.5q-147 0 -280.5 56.5t-241.5 164.5q-107 106 -163 240.5t-56 281.5zM233 735 q0 -125 47 -237t136 -201q88 -88 201 -135t237 -47t237.5 47t204.5 137q88 86 133.5 197t45.5 239q0 126 -46.5 238.5t-134.5 200.5q-89 89 -201 135.5t-239 46.5q-128 0 -239.5 -46t-198.5 -134q-89 -90 -136 -203.5t-47 -237.5zM453 729q0 206 109.5 328.5t293.5 122.5 q152 0 250.5 -78t105.5 -205h-188q-8 70 -53 108.5t-119 38.5q-91 0 -143 -81.5t-52 -227.5q0 -147 52 -224t151 -77q73 0 117 42t53 119l193 1q-8 -139 -109 -223t-260 -84q-186 0 -293.5 118t-107.5 322z" />
<glyph unicode="&#xaa;" horiz-adv-x="748" d="M-14 926q0 156 89 224.5t296 68.5q30 0 45.5 -0.5t30.5 -1.5q6 30 9 51.5t3 34.5q0 36 -18.5 54.5t-55.5 18.5q-40 0 -64 -23.5t-30 -68.5h-211q13 108 85 157.5t214 49.5q149 0 218 -46.5t69 -146.5q0 -27 -4.5 -57.5t-12.5 -62.5l-63 -279q-9 -37 -14.5 -73.5 t-8.5 -71.5h-203l9 73q-39 -40 -84.5 -59.5t-100.5 -19.5q-87 0 -142.5 50t-55.5 128zM201 956q0 -40 17.5 -62t49.5 -22q58 0 97 59.5t57 174.5h-19q-106 0 -154 -35.5t-48 -114.5z" />
<glyph unicode="&#xab;" horiz-adv-x="952" d="M27 528l260 383h243l-254 -393l89 -401h-222zM434 528l260 383h244l-254 -393l88 -401h-221z" />
<glyph unicode="&#xac;" horiz-adv-x="1706" d="M254 668v196h1198v-502h-199v306h-999z" />
<glyph unicode="&#xad;" horiz-adv-x="569" d="M-35 375l60 278h499l-59 -278h-500z" />
<glyph unicode="&#xae;" horiz-adv-x="1706" d="M111 733q0 102 27 198.5t81 188.5q101 170 267 264.5t366 94.5q154 0 290.5 -57.5t243.5 -166.5q103 -104 157 -238t54 -284q0 -152 -56 -287.5t-163 -238.5q-107 -105 -243.5 -161t-282.5 -56q-149 0 -285 58t-243 167q-104 105 -158.5 238.5t-54.5 279.5zM233 735 q0 -124 46 -235.5t133 -198.5q89 -91 203 -139.5t237 -48.5q120 0 233.5 47t206.5 135q87 84 135 196t48 232q0 133 -44.5 245t-132.5 201q-90 93 -202.5 140t-241.5 47q-127 0 -236 -44.5t-196 -131.5q-91 -91 -140 -206.5t-49 -238.5zM545 336v825h323q176 0 264.5 -59.5 t88.5 -177.5q0 -82 -48 -140t-133 -79l185 -369h-224l-157 338h-99v-338h-200zM745 795h99q88 0 129 28t41 88q0 63 -44 93t-136 30h-89v-239z" />
<glyph unicode="&#xaf;" horiz-adv-x="1024" d="M356 1262l31 153h533l-31 -153h-533z" />
<glyph unicode="&#xb0;" horiz-adv-x="674" d="M35 1159q0 127 88.5 216t214.5 89t214.5 -89.5t88.5 -215.5q0 -125 -89 -214t-216 -89q-126 0 -213.5 88t-87.5 215zM162 1161q0 -74 51 -125t125 -51q72 0 123 52t51 124t-51 123t-123 51q-73 0 -124.5 -51t-51.5 -123z" />
<glyph unicode="&#xb1;" horiz-adv-x="1706" d="M254 -2v199h1198v-199h-1198zM254 698v199h498v326h202v-326h498v-199h-498v-325h-202v325h-498z" />
<glyph unicode="&#xb2;" horiz-adv-x="666" d="M-55 571l37 154l131 111q179 148 258.5 248.5t79.5 179.5q0 22 -13.5 35.5t-34.5 13.5q-37 0 -56.5 -23.5t-35.5 -91.5h-198q26 124 97.5 182t199.5 58q109 0 171 -49t62 -136q0 -122 -108 -257.5t-334 -299.5h329l-28 -125h-557z" />
<glyph unicode="&#xb3;" horiz-adv-x="666" d="M-10 754q0 9 0.5 18.5t3.5 30.5h192q-1 -11 -1.5 -21.5t-0.5 -27.5q0 -36 17 -54t51 -18q45 0 71.5 51.5t26.5 138.5q0 45 -24.5 61.5t-92.5 16.5h-20l31 133q3 0 10 -1q21 -3 31 -3q80 0 116.5 44t36.5 139q0 27 -14.5 42t-40.5 15q-33 0 -51.5 -22t-30.5 -76h-195 q17 108 88 163.5t193 55.5q112 0 176 -48.5t64 -134.5q0 -119 -52.5 -179t-156.5 -60q64 -14 94.5 -51.5t30.5 -102.5q0 -153 -73.5 -228t-225.5 -75q-123 0 -188.5 49.5t-65.5 143.5z" />
<glyph unicode="&#xb4;" horiz-adv-x="1024" d="M418 1157l237 369h289l-387 -369h-139z" />
<glyph unicode="&#xb5;" horiz-adv-x="1249" d="M-63 -438l268 1530h289l-76 -435q-15 -80 -23 -151.5t-8 -116.5q0 -93 42 -138.5t128 -45.5q100 0 155.5 82t92.5 291l90 514h289l-193 -1092h-268l18 117q-42 -78 -93.5 -114t-121.5 -36q-67 0 -119 29.5t-94 91.5l-90 -526h-286z" />
<glyph unicode="&#xb6;" horiz-adv-x="1024" d="M41 1130q0 158 107 253.5t284 95.5h551v-111h-113v-1368h-151v1368h-158v-1368h-153v784q-167 6 -267 101t-100 245z" />
<glyph unicode="&#xb7;" horiz-adv-x="506" d="M102 715q0 61 42 103t104 42q61 0 103 -42t42 -103q0 -62 -42 -104t-103 -42q-62 0 -104 42t-42 104z" />
<glyph unicode="&#xb8;" horiz-adv-x="1024" d="M2 -430l47 123q71 -26 129.5 -37.5t110.5 -11.5q44 0 70 22t26 60q0 39 -38.5 54t-157.5 17l69 203h100l-30 -90h8q109 0 167 -44t58 -126q0 -107 -70 -166t-196 -59q-55 0 -129.5 14t-163.5 41z" />
<glyph unicode="&#xb9;" horiz-adv-x="666" d="M139 1133l37 159q63 23 115.5 57t93.5 78h178l-201 -856h-190l152 648q-30 -23 -76 -44.5t-109 -41.5z" />
<glyph unicode="&#xba;" horiz-adv-x="764" d="M12 977q0 31 6.5 75t20.5 105q16 68 36 121.5t40 81.5q46 69 112.5 100t169.5 31q140 0 212.5 -61.5t72.5 -180.5q0 -33 -6 -76.5t-19 -97.5q-15 -64 -35 -117.5t-42 -89.5q-46 -69 -112.5 -100t-168.5 -31q-140 0 -213.5 61t-73.5 179zM221 948q0 -43 20 -65.5t58 -22.5 q36 0 59 19.5t39 62.5q9 21 21 66t26 108q12 55 18.5 98t6.5 68q0 42 -19 63t-57 21q-34 0 -57 -18.5t-39 -61.5q-6 -16 -14 -43.5t-15 -59.5q-6 -29 -18 -81q-29 -126 -29 -154z" />
<glyph unicode="&#xbb;" horiz-adv-x="952" d="M-76 117l254 395l-88 399h219l119 -411l-260 -383h-244zM332 117l254 395l-88 399h219l119 -411l-261 -383h-243z" />
<glyph unicode="&#xbc;" horiz-adv-x="1614" d="M131 1149l37 149q62 24 112 55.5t89 71.5h168l-191 -798h-182l145 604q-29 -21 -73 -41t-105 -41zM293 -25l844 1475h172l-842 -1475h-174zM981 186l35 144l323 469h254l-118 -498h67l-26 -115h-68l-45 -186h-182l45 186h-285zM1157 299h148l127 432l-37 -59l-56 -90z " />
<glyph unicode="&#xbd;" horiz-adv-x="1614" d="M131 1149l37 149q62 24 112 55.5t89 71.5h168l-191 -798h-182l145 604q-29 -21 -73 -41t-105 -41zM293 -25l844 1475h172l-842 -1475h-174zM926 0l35 143l126 103q173 140 247.5 233.5t74.5 165.5q0 21 -13 34t-32 13q-34 0 -53 -22t-35 -84h-191q27 116 95 169.5 t190 53.5q105 0 164 -45.5t59 -126.5q0 -114 -103.5 -241.5t-320.5 -278.5h318l-29 -117h-532z" />
<glyph unicode="&#xbe;" horiz-adv-x="1614" d="M-8 797q0 18 0.5 28.5t1.5 18.5l184 -1q-1 -10 -1.5 -20.5t-0.5 -25.5q0 -34 16 -51t48 -17q43 0 68.5 48t25.5 130q0 41 -23 56.5t-88 15.5h-18l29 125q7 -1 15 -1.5t23 -0.5q77 0 111.5 40t34.5 128q0 26 -13 39.5t-38 13.5q-32 0 -50.5 -20.5t-29.5 -69.5h-185 q16 100 83.5 151.5t185.5 51.5q106 0 166.5 -45t60.5 -123q0 -113 -49.5 -169.5t-149.5 -56.5q60 -12 89.5 -47t29.5 -94q0 -144 -70.5 -213.5t-216.5 -69.5q-116 0 -177.5 46t-61.5 133zM293 -25l844 1475h172l-842 -1475h-174zM981 186l35 144l323 469h254l-118 -498h67 l-26 -115h-68l-45 -186h-182l45 186h-285zM1157 299h148l127 432l-37 -59l-56 -90z" />
<glyph unicode="&#xbf;" horiz-adv-x="854" d="M-27 252q0 157 55.5 266t209.5 234l14 12q100 79 117 121q10 25 22 70.5t29 119.5h219l-33 -168q-32 -165 -140 -259l-24 -21q-113 -106 -151.5 -182.5t-38.5 -176.5q0 -45 23 -68.5t67 -23.5q58 0 93.5 49t56.5 160h256q-36 -224 -138.5 -317t-314.5 -93 q-149 0 -235.5 74t-86.5 203zM426 1208l55 267h248l-55 -267h-248z" />
<glyph unicode="&#xc0;" horiz-adv-x="1210" d="M-145 0l718 1475h404l84 -1475h-309l-15 332h-405l-152 -332h-325zM432 553h297l-6 149q-3 72 -4.5 144.5t-1.5 144.5q0 51 3 115.5t9 144.5q-23 -72 -52.5 -148.5t-68.5 -162.5zM526 1972h252l168 -369h-129z" />
<glyph unicode="&#xc1;" horiz-adv-x="1210" d="M-145 0l718 1475h404l84 -1475h-309l-15 332h-405l-152 -332h-325zM432 553h297l-6 149q-3 72 -4.5 144.5t-1.5 144.5q0 51 3 115.5t9 144.5q-23 -72 -52.5 -148.5t-68.5 -162.5zM608 1603l237 369h289l-387 -369h-139z" />
<glyph unicode="&#xc2;" horiz-adv-x="1210" d="M-145 0l718 1475h404l84 -1475h-309l-15 332h-405l-152 -332h-325zM432 553h297l-6 149q-3 72 -4.5 144.5t-1.5 144.5q0 51 3 115.5t9 144.5q-23 -72 -52.5 -148.5t-68.5 -162.5zM464 1603l267 369h235l129 -369h-129l-131 207l-229 -207h-142z" />
<glyph unicode="&#xc3;" horiz-adv-x="1210" d="M-145 0l718 1475h404l84 -1475h-309l-15 332h-405l-152 -332h-325zM432 553h297l-6 149q-3 72 -4.5 144.5t-1.5 144.5q0 51 3 115.5t9 144.5q-23 -72 -52.5 -148.5t-68.5 -162.5zM528 1646q28 123 80 183.5t131 60.5q17 0 38 -4t46 -13l57 -18q15 -5 28 -7.5t21 -2.5 q35 0 58 20.5t37 65.5h106q-28 -122 -79.5 -181t-131.5 -59q-20 0 -41 4t-38 10l-56 19q-1 0 -6 2q-35 10 -51 10q-35 0 -58.5 -23t-34.5 -67h-106z" />
<glyph unicode="&#xc4;" horiz-adv-x="1210" d="M-145 0l718 1475h404l84 -1475h-309l-15 332h-405l-152 -332h-325zM432 553h297l-6 149q-3 72 -4.5 144.5t-1.5 144.5q0 51 3 115.5t9 144.5q-23 -72 -52.5 -148.5t-68.5 -162.5zM514 1663l53 243h225l-53 -243h-225zM864 1663l51 243h225l-51 -243h-225z" />
<glyph unicode="&#xc5;" horiz-adv-x="1210" d="M-145 0l718 1475h78q-69 38 -104 96t-35 135q0 111 78 188.5t188 77.5q112 0 189 -77.5t77 -188.5q0 -77 -34 -135t-103 -96h70l84 -1475h-309l-15 332h-405l-152 -332h-325zM432 553h297l-6 149q-3 72 -4.5 144.5t-1.5 144.5q0 51 3 115.5t9 144.5q-23 -72 -52.5 -148.5 t-68.5 -162.5zM649 1704q0 -55 37.5 -91t93.5 -36q54 0 90.5 36.5t36.5 90.5q0 55 -36.5 93t-90.5 38q-55 0 -93 -38t-38 -93z" />
<glyph unicode="&#xc6;" horiz-adv-x="1608" d="M-147 0l749 1475h1084l-50 -234h-544l-37 -352h469l-49 -230h-445l-45 -428h440l-49 -231h-712l41 332h-371l-156 -332h-325zM442 553h293l92 709h-41z" />
<glyph unicode="&#xc7;" horiz-adv-x="1155" d="M57 379q0 55 14.5 148t61.5 319q37 173 65.5 269t57.5 147q72 123 180.5 180t272.5 57q207 0 310 -89.5t103 -270.5q0 -27 -2.5 -58.5t-7.5 -68.5h-303q7 67 8.5 88.5t1.5 32.5q0 75 -31.5 111t-97.5 36q-64 0 -103.5 -35.5t-68.5 -122.5q-13 -39 -35.5 -134t-58.5 -261 q-27 -131 -41 -221.5t-14 -136.5q0 -79 34 -120.5t99 -41.5q84 0 129 60.5t71 215.5h308q-36 -260 -160 -384t-350 -124q-220 0 -331.5 101.5t-111.5 302.5zM123 -430l47 123q71 -26 129.5 -37.5t110.5 -11.5q44 0 70 22t26 60q0 39 -38.5 54t-157.5 17l69 203h100l-30 -90 h8q109 0 167 -44t58 -126q0 -107 -70 -166t-196 -59q-55 0 -129.5 14t-163.5 41z" />
<glyph unicode="&#xc8;" horiz-adv-x="1026" d="M-27 0l314 1475h819l-49 -234h-508l-76 -352h469l-49 -230h-469l-90 -428h512l-49 -231h-824zM447 1972h252l168 -369h-129z" />
<glyph unicode="&#xc9;" horiz-adv-x="1026" d="M-27 0l314 1475h819l-49 -234h-508l-76 -352h469l-49 -230h-469l-90 -428h512l-49 -231h-824zM529 1603l237 369h289l-387 -369h-139z" />
<glyph unicode="&#xca;" horiz-adv-x="1026" d="M-27 0l314 1475h819l-49 -234h-508l-76 -352h469l-49 -230h-469l-90 -428h512l-49 -231h-824zM385 1603l267 369h235l129 -369h-129l-131 207l-229 -207h-142z" />
<glyph unicode="&#xcb;" horiz-adv-x="1026" d="M-27 0l314 1475h819l-49 -234h-508l-76 -352h469l-49 -230h-469l-90 -428h512l-49 -231h-824zM435 1663l53 243h225l-53 -243h-225zM785 1663l51 243h225l-51 -243h-225z" />
<glyph unicode="&#xcc;" horiz-adv-x="592" d="M-18 0l313 1475h311l-313 -1475h-311zM207 1972h252l168 -369h-129z" />
<glyph unicode="&#xcd;" horiz-adv-x="592" d="M-18 0l313 1475h311l-313 -1475h-311zM289 1603l237 369h289l-387 -369h-139z" />
<glyph unicode="&#xce;" horiz-adv-x="592" d="M-18 0l313 1475h311l-313 -1475h-311zM145 1603l267 369h235l129 -369h-129l-131 207l-229 -207h-142z" />
<glyph unicode="&#xcf;" horiz-adv-x="592" d="M-18 0l313 1475h311l-313 -1475h-311zM195 1663l53 243h225l-53 -243h-225zM545 1663l51 243h225l-51 -243h-225z" />
<glyph unicode="&#xd0;" horiz-adv-x="1237" d="M-39 674l45 213h172l125 588h399q253 0 357 -97.5t104 -328.5q0 -61 -6 -124.5t-18 -131.5q-38 -199 -76 -333.5t-76 -201.5q-47 -85 -100.5 -137t-122.5 -78q-59 -23 -129.5 -33t-218.5 -10h-426l143 674h-172zM351 227q12 -1 27 -1.5t42 -0.5q122 0 183.5 35t107.5 129 q27 56 54.5 147t49.5 199q17 80 26 152.5t9 132.5q0 131 -50 184t-171 53h-36q-12 0 -24 -2l-80 -368h197l-47 -213h-195z" />
<glyph unicode="&#xd1;" horiz-adv-x="1360" d="M-27 0l314 1475h430l96 -705l6 -44q42 -328 55 -499q10 136 34 294.5t67 361.5l121 592h290l-313 -1475h-430l-96 704l-3 24q-45 330 -52 513q-21 -164 -47.5 -326t-59.5 -323l-121 -592h-291zM610 1646q28 123 80 183.5t131 60.5q17 0 38 -4t46 -13l57 -18 q15 -5 28 -7.5t21 -2.5q35 0 58 20.5t37 65.5h106q-28 -122 -79.5 -181t-131.5 -59q-20 0 -41 4t-38 10l-56 19q-1 0 -6 2q-35 10 -51 10q-35 0 -58.5 -23t-34.5 -67h-106z" />
<glyph unicode="&#xd2;" horiz-adv-x="1239" d="M57 389q0 70 18.5 192.5t53.5 278.5q30 134 65 240t64 157q77 128 187.5 185t279.5 57q226 0 340.5 -105t114.5 -313q0 -69 -16.5 -177t-49.5 -257q-37 -165 -69.5 -270t-63.5 -158q-75 -127 -185.5 -184.5t-281.5 -57.5q-224 0 -340.5 105.5t-116.5 306.5zM369 367 q0 -84 39 -126t118 -42q71 0 116 37t77 122q14 35 36 124.5t60 262.5q26 120 39.5 214.5t13.5 146.5q0 86 -37 128t-114 42q-72 0 -118.5 -36t-80.5 -120q-11 -27 -38 -137.5t-60 -267.5q-24 -116 -37.5 -208.5t-13.5 -139.5zM514 1972h252l168 -369h-129z" />
<glyph unicode="&#xd3;" horiz-adv-x="1239" d="M57 389q0 70 18.5 192.5t53.5 278.5q30 134 65 240t64 157q77 128 187.5 185t279.5 57q226 0 340.5 -105t114.5 -313q0 -69 -16.5 -177t-49.5 -257q-37 -165 -69.5 -270t-63.5 -158q-75 -127 -185.5 -184.5t-281.5 -57.5q-224 0 -340.5 105.5t-116.5 306.5zM369 367 q0 -84 39 -126t118 -42q71 0 116 37t77 122q14 35 36 124.5t60 262.5q26 120 39.5 214.5t13.5 146.5q0 86 -37 128t-114 42q-72 0 -118.5 -36t-80.5 -120q-11 -27 -38 -137.5t-60 -267.5q-24 -116 -37.5 -208.5t-13.5 -139.5zM596 1603l237 369h289l-387 -369h-139z" />
<glyph unicode="&#xd4;" horiz-adv-x="1239" d="M57 389q0 70 18.5 192.5t53.5 278.5q30 134 65 240t64 157q77 128 187.5 185t279.5 57q226 0 340.5 -105t114.5 -313q0 -69 -16.5 -177t-49.5 -257q-37 -165 -69.5 -270t-63.5 -158q-75 -127 -185.5 -184.5t-281.5 -57.5q-224 0 -340.5 105.5t-116.5 306.5zM369 367 q0 -84 39 -126t118 -42q71 0 116 37t77 122q14 35 36 124.5t60 262.5q26 120 39.5 214.5t13.5 146.5q0 86 -37 128t-114 42q-72 0 -118.5 -36t-80.5 -120q-11 -27 -38 -137.5t-60 -267.5q-24 -116 -37.5 -208.5t-13.5 -139.5zM452 1603l267 369h235l129 -369h-129l-131 207 l-229 -207h-142z" />
<glyph unicode="&#xd5;" horiz-adv-x="1239" d="M57 389q0 70 18.5 192.5t53.5 278.5q30 134 65 240t64 157q77 128 187.5 185t279.5 57q226 0 340.5 -105t114.5 -313q0 -69 -16.5 -177t-49.5 -257q-37 -165 -69.5 -270t-63.5 -158q-75 -127 -185.5 -184.5t-281.5 -57.5q-224 0 -340.5 105.5t-116.5 306.5zM369 367 q0 -84 39 -126t118 -42q71 0 116 37t77 122q14 35 36 124.5t60 262.5q26 120 39.5 214.5t13.5 146.5q0 86 -37 128t-114 42q-72 0 -118.5 -36t-80.5 -120q-11 -27 -38 -137.5t-60 -267.5q-24 -116 -37.5 -208.5t-13.5 -139.5zM516 1646q28 123 80 183.5t131 60.5q17 0 38 -4 t46 -13l57 -18q15 -5 28 -7.5t21 -2.5q35 0 58 20.5t37 65.5h106q-28 -122 -79.5 -181t-131.5 -59q-20 0 -41 4t-38 10l-56 19q-1 0 -6 2q-35 10 -51 10q-35 0 -58.5 -23t-34.5 -67h-106z" />
<glyph unicode="&#xd6;" horiz-adv-x="1239" d="M57 389q0 70 18.5 192.5t53.5 278.5q30 134 65 240t64 157q77 128 187.5 185t279.5 57q226 0 340.5 -105t114.5 -313q0 -69 -16.5 -177t-49.5 -257q-37 -165 -69.5 -270t-63.5 -158q-75 -127 -185.5 -184.5t-281.5 -57.5q-224 0 -340.5 105.5t-116.5 306.5zM369 367 q0 -84 39 -126t118 -42q71 0 116 37t77 122q14 35 36 124.5t60 262.5q26 120 39.5 214.5t13.5 146.5q0 86 -37 128t-114 42q-72 0 -118.5 -36t-80.5 -120q-11 -27 -38 -137.5t-60 -267.5q-24 -116 -37.5 -208.5t-13.5 -139.5zM502 1663l53 243h225l-53 -243h-225zM852 1663 l51 243h225l-51 -243h-225z" />
<glyph unicode="&#xd7;" horiz-adv-x="1706" d="M276 160l451 450l-451 453l140 139l450 -450l451 450l141 -139l-450 -453l450 -450l-141 -140l-451 451l-450 -451z" />
<glyph unicode="&#xd8;" horiz-adv-x="1239" d="M-45 -4l143 184q-22 47 -32.5 98t-10.5 111q0 41 7.5 99.5t27.5 168.5q32 169 64 298t63 214q61 168 185.5 249t322.5 81q104 0 182 -22t135 -68l117 147l113 -90l-135 -172q22 -41 32.5 -90.5t10.5 -111.5q0 -53 -7 -117.5t-20 -136.5q-26 -156 -60 -292.5t-73 -242.5 q-62 -168 -186 -249t-320 -81q-110 0 -192.5 25t-126.5 72l-129 -164zM367 318q4 -64 44.5 -96t116.5 -32q73 0 116.5 36t78.5 124q26 69 65 237.5t76 379.5zM375 512l495 643q-6 63 -45 95t-108 32q-75 0 -123 -37t-82 -123q-18 -45 -55.5 -210t-81.5 -400z" />
<glyph unicode="&#xd9;" horiz-adv-x="1235" d="M51 358q0 29 3 58.5t9 60.5l209 998h314l-211 -999q-7 -31 -11 -58.5t-4 -46.5q0 -85 41 -128.5t119 -43.5q94 0 150 69t90 230l207 977h313l-207 -979q-30 -145 -71 -239t-97 -148q-68 -66 -171 -100t-232 -34q-216 0 -333.5 100t-117.5 283zM537 1972h252l168 -369 h-129z" />
<glyph unicode="&#xda;" horiz-adv-x="1235" d="M51 358q0 29 3 58.5t9 60.5l209 998h314l-211 -999q-7 -31 -11 -58.5t-4 -46.5q0 -85 41 -128.5t119 -43.5q94 0 150 69t90 230l207 977h313l-207 -979q-30 -145 -71 -239t-97 -148q-68 -66 -171 -100t-232 -34q-216 0 -333.5 100t-117.5 283zM619 1603l237 369h289 l-387 -369h-139z" />
<glyph unicode="&#xdb;" horiz-adv-x="1235" d="M51 358q0 29 3 58.5t9 60.5l209 998h314l-211 -999q-7 -31 -11 -58.5t-4 -46.5q0 -85 41 -128.5t119 -43.5q94 0 150 69t90 230l207 977h313l-207 -979q-30 -145 -71 -239t-97 -148q-68 -66 -171 -100t-232 -34q-216 0 -333.5 100t-117.5 283zM475 1603l267 369h235 l129 -369h-129l-131 207l-229 -207h-142z" />
<glyph unicode="&#xdc;" horiz-adv-x="1235" d="M51 358q0 29 3 58.5t9 60.5l209 998h314l-211 -999q-7 -31 -11 -58.5t-4 -46.5q0 -85 41 -128.5t119 -43.5q94 0 150 69t90 230l207 977h313l-207 -979q-30 -145 -71 -239t-97 -148q-68 -66 -171 -100t-232 -34q-216 0 -333.5 100t-117.5 283zM525 1663l53 243h225 l-53 -243h-225zM875 1663l51 243h225l-51 -243h-225z" />
<glyph unicode="&#xdd;" horiz-adv-x="1026" d="M121 1475h321l88 -574l338 574h344l-587 -932l-117 -543h-318l115 537zM506 1603l237 369h289l-387 -369h-139z" />
<glyph unicode="&#xde;" horiz-adv-x="1147" d="M-25 0l314 1475h311l-59 -287h43q283 0 398.5 -78.5t115.5 -263.5q0 -114 -28.5 -212t-82.5 -167q-62 -82 -164.5 -117t-304.5 -35h-164l-67 -315h-312zM401 543h115q141 0 204.5 62.5t63.5 199.5q0 81 -48 118.5t-154 37.5h-90z" />
<glyph unicode="&#xdf;" horiz-adv-x="1151" d="M-43 0l217 1022q61 285 166 382t328 97q193 0 302 -77.5t109 -215.5q0 -61 -19.5 -111t-74.5 -116q-21 -26 -63 -69q-86 -88 -86 -144q0 -29 49 -107l39 -65q39 -66 56 -122.5t17 -115.5q0 -176 -104 -271t-297 -95q-56 0 -111.5 7t-109.5 21l43 197q27 -9 55 -13.5 t55 -4.5q87 0 136 42.5t49 116.5q0 44 -13.5 82t-54.5 95q-6 8 -19 27q-89 126 -89 206q0 45 19.5 82t82.5 96q7 7 23 21q143 129 143 227q0 59 -35 93t-96 34q-76 0 -123 -60.5t-76 -197.5l-225 -1063h-293z" />
<glyph unicode="&#xe0;" horiz-adv-x="995" d="M-18 246q0 223 118.5 320.5t393.5 97.5q40 0 61 -0.5t41 -1.5q9 49 12.5 77.5t3.5 44.5q0 53 -25 79t-75 26q-52 0 -83.5 -33t-41.5 -98h-281q19 153 114.5 224t285.5 71q198 0 289.5 -66t91.5 -209q0 -36 -6 -81t-17 -93l-84 -395q-11 -53 -18 -104.5t-11 -104.5h-272 l13 106q-52 -59 -112.5 -87.5t-133.5 -28.5q-117 0 -190.5 72t-73.5 184zM266 291q0 -57 24 -89t66 -32q78 0 129.5 83.5t77.5 250.5h-26q-141 0 -206 -51.5t-65 -161.5zM297 1526h252l168 -369h-129z" />
<glyph unicode="&#xe1;" horiz-adv-x="995" d="M-18 246q0 223 118.5 320.5t393.5 97.5q40 0 61 -0.5t41 -1.5q9 49 12.5 77.5t3.5 44.5q0 53 -25 79t-75 26q-52 0 -83.5 -33t-41.5 -98h-281q19 153 114.5 224t285.5 71q198 0 289.5 -66t91.5 -209q0 -36 -6 -81t-17 -93l-84 -395q-11 -53 -18 -104.5t-11 -104.5h-272 l13 106q-52 -59 -112.5 -87.5t-133.5 -28.5q-117 0 -190.5 72t-73.5 184zM266 291q0 -57 24 -89t66 -32q78 0 129.5 83.5t77.5 250.5h-26q-141 0 -206 -51.5t-65 -161.5zM379 1157l237 369h289l-387 -369h-139z" />
<glyph unicode="&#xe2;" horiz-adv-x="995" d="M-18 246q0 223 118.5 320.5t393.5 97.5q40 0 61 -0.5t41 -1.5q9 49 12.5 77.5t3.5 44.5q0 53 -25 79t-75 26q-52 0 -83.5 -33t-41.5 -98h-281q19 153 114.5 224t285.5 71q198 0 289.5 -66t91.5 -209q0 -36 -6 -81t-17 -93l-84 -395q-11 -53 -18 -104.5t-11 -104.5h-272 l13 106q-52 -59 -112.5 -87.5t-133.5 -28.5q-117 0 -190.5 72t-73.5 184zM266 291q0 -57 24 -89t66 -32q78 0 129.5 83.5t77.5 250.5h-26q-141 0 -206 -51.5t-65 -161.5zM235 1157l267 369h235l129 -369h-129l-131 207l-229 -207h-142z" />
<glyph unicode="&#xe3;" horiz-adv-x="995" d="M-18 246q0 223 118.5 320.5t393.5 97.5q40 0 61 -0.5t41 -1.5q9 49 12.5 77.5t3.5 44.5q0 53 -25 79t-75 26q-52 0 -83.5 -33t-41.5 -98h-281q19 153 114.5 224t285.5 71q198 0 289.5 -66t91.5 -209q0 -36 -6 -81t-17 -93l-84 -395q-11 -53 -18 -104.5t-11 -104.5h-272 l13 106q-52 -59 -112.5 -87.5t-133.5 -28.5q-117 0 -190.5 72t-73.5 184zM266 291q0 -57 24 -89t66 -32q78 0 129.5 83.5t77.5 250.5h-26q-141 0 -206 -51.5t-65 -161.5zM299 1200q28 123 80 183.5t131 60.5q17 0 38 -4t46 -13l57 -18q15 -5 28 -7.5t21 -2.5q35 0 58 20.5 t37 65.5h106q-28 -122 -79.5 -181t-131.5 -59q-20 0 -41 4t-38 10l-56 19q-1 0 -6 2q-35 10 -51 10q-35 0 -58.5 -23t-34.5 -67h-106z" />
<glyph unicode="&#xe4;" horiz-adv-x="995" d="M-18 246q0 223 118.5 320.5t393.5 97.5q40 0 61 -0.5t41 -1.5q9 49 12.5 77.5t3.5 44.5q0 53 -25 79t-75 26q-52 0 -83.5 -33t-41.5 -98h-281q19 153 114.5 224t285.5 71q198 0 289.5 -66t91.5 -209q0 -36 -6 -81t-17 -93l-84 -395q-11 -53 -18 -104.5t-11 -104.5h-272 l13 106q-52 -59 -112.5 -87.5t-133.5 -28.5q-117 0 -190.5 72t-73.5 184zM266 291q0 -57 24 -89t66 -32q78 0 129.5 83.5t77.5 250.5h-26q-141 0 -206 -51.5t-65 -161.5zM285 1217l53 243h225l-53 -243h-225zM635 1217l51 243h225l-51 -243h-225z" />
<glyph unicode="&#xe5;" horiz-adv-x="995" d="M-18 246q0 223 118.5 320.5t393.5 97.5q40 0 61 -0.5t41 -1.5q9 49 12.5 77.5t3.5 44.5q0 53 -25 79t-75 26q-52 0 -83.5 -33t-41.5 -98h-281q19 153 114.5 224t285.5 71q198 0 289.5 -66t91.5 -209q0 -36 -6 -81t-17 -93l-84 -395q-11 -53 -18 -104.5t-11 -104.5h-272 l13 106q-52 -59 -112.5 -87.5t-133.5 -28.5q-117 0 -190.5 72t-73.5 184zM266 291q0 -57 24 -89t66 -32q78 0 129.5 83.5t77.5 250.5h-26q-141 0 -206 -51.5t-65 -161.5zM313 1376q0 111 77.5 188.5t189.5 77.5q111 0 188.5 -77.5t77.5 -188.5q0 -112 -77 -189t-189 -77 q-113 0 -190 77t-77 189zM451 1374q0 -55 36.5 -91t92.5 -36q54 0 91.5 37t37.5 90q0 55 -37.5 93t-91.5 38q-55 0 -92 -37.5t-37 -93.5z" />
<glyph unicode="&#xe6;" horiz-adv-x="1522" d="M-18 244q0 205 109.5 300t346.5 95h156q9 48 13.5 84.5t4.5 58.5q0 52 -23 75.5t-75 23.5q-54 0 -86 -31.5t-41 -93.5h-281q20 153 114 224t276 71q114 0 177 -27.5t95 -89.5q47 61 113.5 89t169.5 28q171 0 268.5 -83.5t97.5 -228.5q0 -54 -8.5 -120.5t-26.5 -145.5 h-555q-15 -87 -20.5 -128.5t-5.5 -65.5q0 -62 25 -92.5t75 -30.5q60 0 96.5 44t57.5 142h297q-51 -197 -159 -281t-310 -84q-105 0 -171.5 41.5t-105.5 128.5q-56 -82 -133 -119.5t-188 -37.5q-146 0 -224.5 66t-78.5 188zM264 272q0 -47 25.5 -74.5t68.5 -27.5 q78 0 129 76.5t72 226.5h-74q-109 0 -165 -50.5t-56 -150.5zM868 639h256q6 31 9.5 58.5t3.5 47.5q0 65 -28.5 100.5t-80.5 35.5q-64 0 -102.5 -58t-57.5 -184z" />
<glyph unicode="&#xe7;" horiz-adv-x="979" d="M18 322q0 48 8.5 112.5t24.5 138.5q22 100 48 173.5t55 119.5q61 98 149 142.5t221 44.5q184 0 273.5 -82t89.5 -250q0 -18 -4 -62v-6h-276q4 23 6.5 45.5t2.5 44.5q0 59 -25.5 89t-74.5 30q-46 0 -76 -26.5t-51 -85.5q-6 -19 -16.5 -61t-22.5 -95l-12 -58 q-41 -195 -41 -243q0 -62 25 -93.5t75 -31.5q60 0 95.5 46.5t60.5 158.5h285q-33 -204 -139.5 -300t-301.5 -96q-186 0 -282.5 87.5t-96.5 257.5zM35 -430l47 123q71 -26 129.5 -37.5t110.5 -11.5q44 0 70 22t26 60q0 39 -38.5 54t-157.5 17l69 203h100l-30 -90h8 q109 0 167 -44t58 -126q0 -107 -70 -166t-196 -59q-55 0 -129.5 14t-163.5 41z" />
<glyph unicode="&#xe8;" horiz-adv-x="1018" d="M16 322q0 46 9 109.5t26 141.5q23 100 49 174t54 119q60 99 148.5 143t225.5 44q182 0 282.5 -83.5t100.5 -232.5q0 -52 -8.5 -118t-25.5 -150h-553l-1 -5q-28 -145 -28 -188q0 -61 25.5 -91.5t76.5 -30.5q59 0 95 44t57 144h297q-48 -192 -156 -278.5t-299 -86.5 q-182 0 -278.5 89t-96.5 256zM362 635h256q7 35 10 61t3 47q0 65 -27.5 99.5t-79.5 34.5q-65 0 -104 -57.5t-58 -184.5zM301 1526h252l168 -369h-129z" />
<glyph unicode="&#xe9;" horiz-adv-x="1018" d="M16 322q0 46 9 109.5t26 141.5q23 100 49 174t54 119q60 99 148.5 143t225.5 44q182 0 282.5 -83.5t100.5 -232.5q0 -52 -8.5 -118t-25.5 -150h-553l-1 -5q-28 -145 -28 -188q0 -61 25.5 -91.5t76.5 -30.5q59 0 95 44t57 144h297q-48 -192 -156 -278.5t-299 -86.5 q-182 0 -278.5 89t-96.5 256zM362 635h256q7 35 10 61t3 47q0 65 -27.5 99.5t-79.5 34.5q-65 0 -104 -57.5t-58 -184.5zM383 1157l237 369h289l-387 -369h-139z" />
<glyph unicode="&#xea;" horiz-adv-x="1018" d="M16 322q0 46 9 109.5t26 141.5q23 100 49 174t54 119q60 99 148.5 143t225.5 44q182 0 282.5 -83.5t100.5 -232.5q0 -52 -8.5 -118t-25.5 -150h-553l-1 -5q-28 -145 -28 -188q0 -61 25.5 -91.5t76.5 -30.5q59 0 95 44t57 144h297q-48 -192 -156 -278.5t-299 -86.5 q-182 0 -278.5 89t-96.5 256zM362 635h256q7 35 10 61t3 47q0 65 -27.5 99.5t-79.5 34.5q-65 0 -104 -57.5t-58 -184.5zM239 1157l267 369h235l129 -369h-129l-131 207l-229 -207h-142z" />
<glyph unicode="&#xeb;" horiz-adv-x="1018" d="M16 322q0 46 9 109.5t26 141.5q23 100 49 174t54 119q60 99 148.5 143t225.5 44q182 0 282.5 -83.5t100.5 -232.5q0 -52 -8.5 -118t-25.5 -150h-553l-1 -5q-28 -145 -28 -188q0 -61 25.5 -91.5t76.5 -30.5q59 0 95 44t57 144h297q-48 -192 -156 -278.5t-299 -86.5 q-182 0 -278.5 89t-96.5 256zM362 635h256q7 35 10 61t3 47q0 65 -27.5 99.5t-79.5 34.5q-65 0 -104 -57.5t-58 -184.5zM289 1217l53 243h225l-53 -243h-225zM639 1217l51 243h225l-51 -243h-225z" />
<glyph unicode="&#xec;" horiz-adv-x="522" d="M-39 0l219 1028h291l-219 -1028h-291zM86 1526h252l168 -369h-129z" />
<glyph unicode="&#xed;" horiz-adv-x="522" d="M-39 0l219 1028h291l-219 -1028h-291zM168 1157l237 369h289l-387 -369h-139z" />
<glyph unicode="&#xee;" horiz-adv-x="522" d="M-39 0l219 1028h291l-219 -1028h-291zM24 1157l267 369h235l129 -369h-129l-131 207l-229 -207h-142z" />
<glyph unicode="&#xef;" horiz-adv-x="522" d="M-39 0l219 1028h291l-219 -1028h-291zM74 1217l53 243h225l-53 -243h-225zM424 1217l51 243h225l-51 -243h-225z" />
<glyph unicode="&#xf0;" horiz-adv-x="1018" d="M25 307q0 47 8 108.5t24 135.5q20 89 46 160t57 118q58 93 142.5 137t203.5 44q21 0 49 -2.5t65 -7.5q-9 41 -24 79.5t-37 75.5l-256 -74l-31 123l220 66q-25 36 -49.5 67.5t-49.5 59.5l125 104q64 -62 101 -102.5t59 -73.5l231 70l37 -121l-190 -55q73 -127 106 -241 t33 -237q0 -67 -8 -138.5t-25 -147.5q-22 -102 -47 -178.5t-51 -120.5q-56 -93 -143 -136t-220 -43q-185 0 -280.5 84t-95.5 246zM297 264q0 -59 25 -89t75 -30q46 0 76.5 26t52.5 85q11 29 27.5 93.5t34.5 146.5q15 72 22.5 130t7.5 95q0 60 -23.5 89.5t-72.5 29.5 q-46 0 -76 -25t-51 -84q-8 -22 -22.5 -81.5t-40.5 -180.5q-22 -101 -28.5 -140.5t-6.5 -64.5z" />
<glyph unicode="&#xf1;" horiz-adv-x="1014" d="M-45 0l178 840q14 65 22 108.5t13 79.5h276l-18 -117q48 73 110.5 106.5t151.5 33.5q113 0 171.5 -54t58.5 -159q-1 -39 -4.5 -72.5t-10.5 -65.5l-147 -700h-293l149 702q6 31 8.5 47.5t2.5 24.5q0 40 -19 60t-57 20q-56 0 -99.5 -56.5t-64.5 -156.5l-137 -641h-291z M324 1200q28 123 80 183.5t131 60.5q17 0 38 -4t46 -13l57 -18q15 -5 28 -7.5t21 -2.5q35 0 58 20.5t37 65.5h106q-28 -122 -79.5 -181t-131.5 -59q-20 0 -41 4t-38 10l-56 19q-1 0 -6 2q-35 10 -51 10q-35 0 -58.5 -23t-34.5 -67h-106z" />
<glyph unicode="&#xf2;" horiz-adv-x="1018" d="M16 317q0 48 9 113t26 145q21 96 48 172t55 119q62 99 150.5 143t225.5 44q186 0 282.5 -88t96.5 -256q0 -51 -8 -113.5t-24 -136.5q-22 -96 -48.5 -171t-56.5 -124q-61 -98 -150 -142.5t-225 -44.5q-186 0 -283.5 87t-97.5 253zM295 276q0 -61 26 -92.5t76 -31.5 q47 0 79 27.5t54 88.5q12 33 28.5 99.5t33.5 150.5q16 77 24.5 137.5t8.5 98.5q0 60 -25 90t-76 30q-47 0 -77.5 -26.5t-51.5 -86.5q-7 -18 -17 -57.5t-20 -89.5q-6 -30 -18 -85q-45 -207 -45 -253zM307 1526h252l168 -369h-129z" />
<glyph unicode="&#xf3;" horiz-adv-x="1018" d="M16 317q0 48 9 113t26 145q21 96 48 172t55 119q62 99 150.5 143t225.5 44q186 0 282.5 -88t96.5 -256q0 -51 -8 -113.5t-24 -136.5q-22 -96 -48.5 -171t-56.5 -124q-61 -98 -150 -142.5t-225 -44.5q-186 0 -283.5 87t-97.5 253zM295 276q0 -61 26 -92.5t76 -31.5 q47 0 79 27.5t54 88.5q12 33 28.5 99.5t33.5 150.5q16 77 24.5 137.5t8.5 98.5q0 60 -25 90t-76 30q-47 0 -77.5 -26.5t-51.5 -86.5q-7 -18 -17 -57.5t-20 -89.5q-6 -30 -18 -85q-45 -207 -45 -253zM389 1157l237 369h289l-387 -369h-139z" />
<glyph unicode="&#xf4;" horiz-adv-x="1018" d="M16 317q0 48 9 113t26 145q21 96 48 172t55 119q62 99 150.5 143t225.5 44q186 0 282.5 -88t96.5 -256q0 -51 -8 -113.5t-24 -136.5q-22 -96 -48.5 -171t-56.5 -124q-61 -98 -150 -142.5t-225 -44.5q-186 0 -283.5 87t-97.5 253zM295 276q0 -61 26 -92.5t76 -31.5 q47 0 79 27.5t54 88.5q12 33 28.5 99.5t33.5 150.5q16 77 24.5 137.5t8.5 98.5q0 60 -25 90t-76 30q-47 0 -77.5 -26.5t-51.5 -86.5q-7 -18 -17 -57.5t-20 -89.5q-6 -30 -18 -85q-45 -207 -45 -253zM245 1157l267 369h235l129 -369h-129l-131 207l-229 -207h-142z" />
<glyph unicode="&#xf5;" horiz-adv-x="1018" d="M16 317q0 48 9 113t26 145q21 96 48 172t55 119q62 99 150.5 143t225.5 44q186 0 282.5 -88t96.5 -256q0 -51 -8 -113.5t-24 -136.5q-22 -96 -48.5 -171t-56.5 -124q-61 -98 -150 -142.5t-225 -44.5q-186 0 -283.5 87t-97.5 253zM295 276q0 -61 26 -92.5t76 -31.5 q47 0 79 27.5t54 88.5q12 33 28.5 99.5t33.5 150.5q16 77 24.5 137.5t8.5 98.5q0 60 -25 90t-76 30q-47 0 -77.5 -26.5t-51.5 -86.5q-7 -18 -17 -57.5t-20 -89.5q-6 -30 -18 -85q-45 -207 -45 -253zM309 1200q28 123 80 183.5t131 60.5q17 0 38 -4t46 -13l57 -18 q15 -5 28 -7.5t21 -2.5q35 0 58 20.5t37 65.5h106q-28 -122 -79.5 -181t-131.5 -59q-20 0 -41 4t-38 10l-56 19q-1 0 -6 2q-35 10 -51 10q-35 0 -58.5 -23t-34.5 -67h-106z" />
<glyph unicode="&#xf6;" horiz-adv-x="1018" d="M16 317q0 48 9 113t26 145q21 96 48 172t55 119q62 99 150.5 143t225.5 44q186 0 282.5 -88t96.5 -256q0 -51 -8 -113.5t-24 -136.5q-22 -96 -48.5 -171t-56.5 -124q-61 -98 -150 -142.5t-225 -44.5q-186 0 -283.5 87t-97.5 253zM295 276q0 -61 26 -92.5t76 -31.5 q47 0 79 27.5t54 88.5q12 33 28.5 99.5t33.5 150.5q16 77 24.5 137.5t8.5 98.5q0 60 -25 90t-76 30q-47 0 -77.5 -26.5t-51.5 -86.5q-7 -18 -17 -57.5t-20 -89.5q-6 -30 -18 -85q-45 -207 -45 -253zM295 1217l53 243h225l-53 -243h-225zM645 1217l51 243h225l-51 -243h-225z " />
<glyph unicode="&#xf7;" horiz-adv-x="1706" d="M254 512v199h1198v-199h-1198zM702 217q0 63 44.5 107.5t107.5 44.5q62 0 107 -45t45 -107q0 -61 -45 -105t-107 -44q-63 0 -107.5 43t-44.5 106zM702 1004q0 63 44.5 107t107.5 44q62 0 107 -44.5t45 -106.5q0 -63 -44.5 -107.5t-107.5 -44.5t-107.5 44.5t-44.5 107.5z " />
<glyph unicode="&#xf8;" horiz-adv-x="1018" d="M-39 -29l115 144q-30 44 -45 95t-15 114q0 49 8.5 112.5t24.5 136.5q22 97 48.5 172.5t56.5 124.5q60 98 149.5 142.5t224.5 44.5q78 0 138 -14.5t104 -43.5l107 127l86 -61l-113 -137q30 -48 44.5 -101t14.5 -112q0 -53 -8 -117.5t-24 -136.5q-22 -96 -48.5 -171 t-56.5 -124q-60 -99 -149 -142.5t-228 -43.5q-80 0 -139 14.5t-102 44.5l-107 -133zM272 356l359 439q-4 44 -34 68t-83 24q-93 0 -141 -89t-101 -442zM289 238q3 -43 34 -67t85 -24q93 0 140.5 89t100.5 442z" />
<glyph unicode="&#xf9;" horiz-adv-x="1014" d="M4 190q0 38 3.5 71.5t10.5 65.5l150 701h291l-150 -702q-4 -21 -6 -40t-2 -32q0 -40 18.5 -59t57.5 -19q56 0 99.5 55.5t64.5 155.5l135 641h291l-179 -838q-9 -44 -17 -91t-16 -99h-278l19 119q-50 -74 -112.5 -108t-150.5 -34q-113 0 -171 54.5t-58 158.5zM332 1526 h252l168 -369h-129z" />
<glyph unicode="&#xfa;" horiz-adv-x="1014" d="M4 190q0 38 3.5 71.5t10.5 65.5l150 701h291l-150 -702q-4 -21 -6 -40t-2 -32q0 -40 18.5 -59t57.5 -19q56 0 99.5 55.5t64.5 155.5l135 641h291l-179 -838q-9 -44 -17 -91t-16 -99h-278l19 119q-50 -74 -112.5 -108t-150.5 -34q-113 0 -171 54.5t-58 158.5zM414 1157 l237 369h289l-387 -369h-139z" />
<glyph unicode="&#xfb;" horiz-adv-x="1014" d="M4 190q0 38 3.5 71.5t10.5 65.5l150 701h291l-150 -702q-4 -21 -6 -40t-2 -32q0 -40 18.5 -59t57.5 -19q56 0 99.5 55.5t64.5 155.5l135 641h291l-179 -838q-9 -44 -17 -91t-16 -99h-278l19 119q-50 -74 -112.5 -108t-150.5 -34q-113 0 -171 54.5t-58 158.5zM270 1157 l267 369h235l129 -369h-129l-131 207l-229 -207h-142z" />
<glyph unicode="&#xfc;" horiz-adv-x="1014" d="M4 190q0 38 3.5 71.5t10.5 65.5l150 701h291l-150 -702q-4 -21 -6 -40t-2 -32q0 -40 18.5 -59t57.5 -19q56 0 99.5 55.5t64.5 155.5l135 641h291l-179 -838q-9 -44 -17 -91t-16 -99h-278l19 119q-50 -74 -112.5 -108t-150.5 -34q-113 0 -171 54.5t-58 158.5zM320 1217 l53 243h225l-53 -243h-225zM670 1217l51 243h225l-51 -243h-225z" />
<glyph unicode="&#xfd;" horiz-adv-x="944" d="M-29 -389l199 362l-127 1055h295l27 -471q5 -70 7.5 -135.5t2.5 -130.5v-45q20 79 40 140t40 103l239 539h299l-694 -1417h-328zM379 1157l237 369h289l-387 -369h-139z" />
<glyph unicode="&#xfe;" horiz-adv-x="1042" d="M-125 -389l395 1864h291l-110 -527q48 55 101 78t142 23q122 0 182 -65.5t60 -199.5q0 -50 -10.5 -127t-32.5 -184q-23 -107 -49 -186.5t-53 -126.5q-52 -91 -118 -131.5t-161 -40.5q-83 0 -137 30t-101 103l-108 -510h-291zM326 279q0 -47 27 -75t71 -28q48 0 78 30 t53 105q38 119 60 240t22 197q0 55 -24 83.5t-70 28.5q-41 0 -72.5 -28t-56.5 -87q-13 -31 -28.5 -89.5t-29.5 -129.5q-14 -72 -22 -137.5t-8 -109.5z" />
<glyph unicode="&#xff;" horiz-adv-x="944" d="M-29 -389l199 362l-127 1055h295l27 -471q5 -70 7.5 -135.5t2.5 -130.5v-45q20 79 40 140t40 103l239 539h299l-694 -1417h-328zM285 1217l53 243h225l-53 -243h-225zM635 1217l51 243h225l-51 -243h-225z" />
<glyph unicode="&#x131;" horiz-adv-x="522" d="M-39 0l219 1028h291l-219 -1028h-291z" />
<glyph unicode="&#x152;" horiz-adv-x="1688" d="M57 397q0 70 18 184.5t52 268.5q33 144 65 243t64 152q75 128 186 184t291 56q82 0 192.5 -5t139.5 -5h702l-51 -234h-506l-75 -352h469l-50 -230h-469l-90 -428h512l-49 -231h-610q-72 0 -189.5 -5t-162.5 -5q-215 0 -327 104t-112 303zM369 373q0 -71 43 -106.5 t129 -35.5h149l213 1010h-145q-94 0 -139 -19.5t-74 -66.5q-48 -78 -120 -425l-11 -52q-22 -106 -33.5 -184t-11.5 -121z" />
<glyph unicode="&#x153;" horiz-adv-x="1554" d="M16 324q0 46 8.5 107t26.5 142q23 101 49 176t54 121q59 97 147.5 142t218.5 45q97 0 164.5 -30t114.5 -93q49 62 122.5 92.5t174.5 30.5q157 0 255.5 -88.5t98.5 -229.5q0 -52 -8.5 -118t-26.5 -150h-552l-2 -6q-27 -144 -27 -186q0 -62 24.5 -92.5t75.5 -30.5 q60 0 96.5 44t56.5 142h297q-49 -193 -157 -279t-303 -86q-88 0 -151.5 29.5t-104.5 89.5q-58 -60 -126 -88t-157 -28q-178 0 -273.5 89t-95.5 255zM295 279q0 -62 25.5 -92.5t76.5 -30.5q48 0 79.5 27t53.5 87q11 28 27 91.5t35 158.5q16 77 24.5 137.5t8.5 98.5 q0 61 -25 92t-76 31q-47 0 -77.5 -26.5t-51.5 -86.5v-2q-19 -65 -37 -148l-14 -67q-49 -223 -49 -270zM901 637h256q6 33 9 60.5t3 47.5q0 65 -28 99.5t-80 34.5q-65 0 -103 -57t-57 -185z" />
<glyph unicode="&#x178;" horiz-adv-x="1026" d="M121 1475h321l88 -574l338 574h344l-587 -932l-117 -543h-318l115 537zM412 1663l53 243h225l-53 -243h-225zM762 1663l51 243h225l-51 -243h-225z" />
<glyph unicode="&#x2c6;" horiz-adv-x="1024" d="M274 1157l267 369h235l129 -369h-129l-131 207l-229 -207h-142z" />
<glyph unicode="&#x2dc;" horiz-adv-x="1024" d="M338 1200q28 123 80 183.5t131 60.5q17 0 38 -4t46 -13l57 -18q15 -5 28 -7.5t21 -2.5q35 0 58 20.5t37 65.5h106q-28 -122 -79.5 -181t-131.5 -59q-20 0 -41 4t-38 10l-56 19q-1 0 -6 2q-35 10 -51 10q-35 0 -58.5 -23t-34.5 -67h-106z" />
<glyph unicode="&#x2013;" horiz-adv-x="1024" d="M-76 410l43 206h1049l-43 -206h-1049z" />
<glyph unicode="&#x2014;" horiz-adv-x="2048" d="M-76 410l43 206h2048l-43 -206h-2048z" />
<glyph unicode="&#x2018;" horiz-adv-x="451" d="M96 1014l262 461h205l-182 -461h-285z" />
<glyph unicode="&#x2019;" horiz-adv-x="451" d="M96 1014l185 461h284l-264 -461h-205z" />
<glyph unicode="&#x201a;" horiz-adv-x="451" d="M-172 -199l182 461h285l-262 -461h-205z" />
<glyph unicode="&#x201c;" horiz-adv-x="827" d="M96 1014l264 461h205l-184 -461h-285zM473 1014l264 461h205l-184 -461h-285z" />
<glyph unicode="&#x201d;" horiz-adv-x="827" d="M96 1014l185 461h284l-264 -461h-205zM473 1014l184 461h285l-264 -461h-205z" />
<glyph unicode="&#x201e;" horiz-adv-x="827" d="M-172 -199l182 461h285l-262 -461h-205zM205 -199l182 461h285l-262 -461h-205z" />
<glyph unicode="&#x2022;" horiz-adv-x="1208" d="M307 762q0 123 87 209t210 86q122 0 208.5 -86.5t86.5 -208.5t-87.5 -209.5t-209.5 -87.5q-123 0 -209 87t-86 210z" />
<glyph unicode="&#x2026;" horiz-adv-x="2048" d="M59 0l54 256h254l-56 -256h-252zM741 0l54 256h254l-56 -256h-252zM1425 0l54 256h254l-56 -256h-252z" />
<glyph unicode="&#x2039;" horiz-adv-x="545" d="M27 528l260 383h243l-254 -393l89 -401h-222z" />
<glyph unicode="&#x203a;" horiz-adv-x="545" d="M-76 117l252 395l-88 399h221l119 -411l-260 -383h-244z" />
<glyph unicode="&#x2122;" horiz-adv-x="1706" d="M207 1350v112h485v-112h-168v-435h-149v435h-168zM803 915v547h196l127 -332l123 332h197v-547h-135v410l-154 -410h-61l-158 410v-410h-135z" />
<glyph unicode="&#xe000;" horiz-adv-x="1030" d="M0 1030h1030v-1030h-1030v1030z" />
<glyph unicode="&#xfb01;" horiz-adv-x="1114" d="M553 0l219 1028h291l-219 -1028h-291zM819 1247l47 228h291l-47 -228h-291zM-20 0l180 848h-164l39 180h164l30 152q33 165 115 241t227 76q46 0 91.5 -3.5t90.5 -10.5l-40 -198q-24 4 -41 6.5t-29 2.5q-52 0 -81 -27t-42 -87l-31 -152h170l-38 -180h-170l-181 -848h-290 z" />
<glyph unicode="&#xfb02;" horiz-adv-x="1114" d="M553 0l313 1475h291l-313 -1475h-291zM-20 0l180 848h-164l39 180h164l30 152q33 165 115 241t227 76q46 0 91.5 -3.5t90.5 -10.5l-40 -198q-24 4 -41 6.5t-29 2.5q-52 0 -81 -27t-42 -87l-31 -152h170l-38 -180h-170l-181 -848h-290z" />
<glyph unicode="&#xfb03;" horiz-adv-x="1706" d="M1145 0l219 1028h291l-219 -1028h-291zM1411 1247l47 228h291l-47 -228h-291zM572 0l180 848h-164l39 180h164l30 152q33 165 115 241t227 76q46 0 91.5 -3.5t90.5 -10.5l-40 -198q-24 4 -41 6.5t-29 2.5q-52 0 -81 -27t-42 -87l-31 -152h170l-38 -180h-170l-181 -848 h-290zM-20 0l180 848h-164l39 180h164l30 152q33 165 115 241t227 76q46 0 91.5 -3.5t90.5 -10.5l-40 -198q-24 4 -41 6.5t-29 2.5q-52 0 -81 -27t-42 -87l-31 -152h170l-38 -180h-170l-181 -848h-290z" />
<glyph unicode="&#xfb04;" horiz-adv-x="1706" d="M1145 0l313 1475h291l-313 -1475h-291zM572 0l180 848h-164l39 180h164l30 152q33 165 115 241t227 76q46 0 91.5 -3.5t90.5 -10.5l-40 -198q-24 4 -41 6.5t-29 2.5q-52 0 -81 -27t-42 -87l-31 -152h170l-38 -180h-170l-181 -848h-290zM-20 0l180 848h-164l39 180h164 l30 152q33 165 115 241t227 76q46 0 91.5 -3.5t90.5 -10.5l-40 -198q-24 4 -41 6.5t-29 2.5q-52 0 -81 -27t-42 -87l-31 -152h170l-38 -180h-170l-181 -848h-290z" />
</font>
</defs>
</svg>
